<?xml version="1.0" encoding="UTF-8" standalone="no"?>
<!-- Created with Inkscape (http://www.inkscape.org/) -->

<svg
   xmlns:dc="http://purl.org/dc/elements/1.1/"
   xmlns:cc="http://creativecommons.org/ns#"
   xmlns:rdf="http://www.w3.org/1999/02/22-rdf-syntax-ns#"
   xmlns:svg="http://www.w3.org/2000/svg"
   xmlns="http://www.w3.org/2000/svg"
   xmlns:sodipodi="http://sodipodi.sourceforge.net/DTD/sodipodi-0.dtd"
   xmlns:inkscape="http://www.inkscape.org/namespaces/inkscape"
   id="svg4190"
   version="1.1"
   inkscape:version="0.91 r13725"
   xml:space="preserve"
   width="284"
   height="492"
   viewBox="0 0 284 492"
   sodipodi:docname="logo.svg"><metadata
     id="metadata4196"><rdf:RDF><cc:Work
         rdf:about=""><dc:format>image/svg+xml</dc:format><dc:type
           rdf:resource="http://purl.org/dc/dcmitype/StillImage" /><dc:title></dc:title></cc:Work></rdf:RDF></metadata><defs
     id="defs4194" /><sodipodi:namedview
     pagecolor="#ffffff"
     bordercolor="#666666"
     borderopacity="1"
     objecttolerance="10"
     gridtolerance="10"
     guidetolerance="10"
     inkscape:pageopacity="0"
     inkscape:pageshadow="2"
     inkscape:window-width="1366"
     inkscape:window-height="724"
     id="namedview4192"
     showgrid="false"
     inkscape:zoom="0.38301588"
     inkscape:cx="1089.1009"
     inkscape:cy="115.46918"
     inkscape:window-x="0"
     inkscape:window-y="0"
     inkscape:window-maximized="1"
     inkscape:current-layer="g4198" /><g
     id="g4198"
     inkscape:groupmode="layer"
     inkscape:label="Gryfus Logo edit"
     transform="matrix(1.25,0,0,-1.25,0,492.00002)"><path
       d="m 93.6272,156.09091 3.1187,-2.073 10.7189,0.7832 c 12.1326,8.8537 16.5824,11.9934 26.3926,7.1348 1.8958,-0.9388 3.6646,-0.1446 6.0851,-1.8856 l -4.6046,-7.2014 c -7.3097,-2.681 -8.3506,3.4449 -15.2478,0.4518 -6.3471,-2.7547 -12.28,-11.7295 -14.5772,-13.3673 l -1.7753,-0.506 c -2.9552,-0.0933 -5.5738,-0.2205 -7.8979,-0.339 -1.5721,4.299 -2.3721,8.841 -2.3721,13.4507 0,1.1857 0.0533,2.3711 0.1596,3.5518"
       style="fill:#ffffff;fill-opacity:1;fill-rule:evenodd;stroke:none"
       id="path4200"
       inkscape:connector-curvature="0" /><path
       d="m 114.6603,148.36591 c 1.4006,-2.2876 3.5263,-4.0717 6.0959,-4.0147 2.8794,0.0635 3.3239,0.4379 4.75,2.4086 -0.5567,-0.1378 0.1429,-0.1891 -1.7328,-0.2305 -1.7266,-0.038 -3.5612,2.6144 -4.9133,5.1134 -1.4519,-0.8804 -2.865,-2.0293 -4.1998,-3.2768"
       style="fill:#ffffff;fill-opacity:1;fill-rule:evenodd;stroke:none"
       id="path4202"
       inkscape:connector-curvature="0" /><path
       d="m 140.883,159.54741 c 2.7074,-1.309 4.2815,-4.803 4.2815,-7.683 0,-2.8803 -1.2495,-4.8991 -3.1884,-6.3683 0.1258,0.5598 0.1922,-0.1392 0.1922,1.7376 0,1.8766 -3.1791,3.8107 -5.8723,5.1248 l 4.587,7.1889 z"
       style="fill:#ffffff;fill-opacity:1;fill-rule:evenodd;stroke:none"
       id="path4204"
       inkscape:connector-curvature="0" /><path
       d="m 155.4741,120.65841 c 0.9726,2.8457 4.2514,4.8296 7.1107,5.1772 2.859,0.3475 5.0136,-0.6495 6.7059,-2.397 -0.5706,0.057 0.1148,0.2075 -1.7481,-0.0187 -1.8629,-0.2265 -3.3993,-3.6159 -4.379,-6.4477 l -7.6895,3.6862 z"
       style="fill:#ffffff;fill-opacity:1;fill-rule:evenodd;stroke:none"
       id="path4206"
       inkscape:connector-curvature="0" /><path
       d="m 142.3758,97.293214 c 1.4003,-2.2875 3.5263,-4.0714 6.0956,-4.0147 2.8797,0.0638 3.3239,0.438 4.75,2.4089 -0.5567,-0.138 0.1434,-0.1891 -1.7328,-0.2307 -1.7266,-0.038 -3.5612,2.6144 -4.9133,5.113396 -1.4516,-0.880496 -2.8647,-2.029296 -4.1995,-3.276896"
       style="fill:#ffffff;fill-opacity:1;fill-rule:evenodd;stroke:none"
       id="path4208"
       inkscape:connector-curvature="0" /><path
       d="m 114.7374,59.553014 c -48.4299,0 -87.6906,37.825 -87.6906,84.484696 0,8.8259 1.4048,17.3352 4.0113,25.3326 l -0.3875,0.0871 -0.5536,0.1261 -0.506,0.1406 -0.4731,0.167 -0.4734,0.1664 -0.4249,0.1828 -0.3923,0.2081 -0.3612,0.2114 -0.3424,0.2259 -0.2304,0.184 -0.214,0.197 -0.1806,0.203 -0.1653,0.2129 -0.1488,0.2273 -0.0848,0.2341 -0.1,0.2424 -0.051,0.2387 -9e-4,0.0215 -0.0354,0.25 0.3739,-0.0297 0.3744,-0.008 0.5035,0.007 0.6502,0.0142 0.7793,0.0292 1.8184,0.1111 1.9607,0.127 c 0.1304,0.3422 0.2625,0.6832 0.3972,1.0233 -1.3289,0.2075 -2.6657,0.4011 -3.3035,0.4689 l -0.8303,0.1023 -0.8133,0.1159 -0.7486,0.1225 -0.7333,0.1137 -0.7166,0.1275 -0.6361,0.1256 -0.6029,0.1508 -0.5545,0.1468 -0.5043,0.1409 -0.4572,0.1585 -0.4252,0.1613 -0.3597,0.1692 -0.3436,0.1823 -0.3109,0.1859 -0.2795,0.1894 -0.2452,0.2157 -0.2469,0.2143 -0.197,0.2316 -0.1823,0.2222 -0.1491,0.2475 -0.1335,0.2395 -0.1009,0.2645 -0.0995,0.2642 -0.0516,0.2809 -0.0533,0.2809 -0.019,0.284 -0.004,0.2968 -0.003,0.2548 0.3742,-0.051 0.1298,-0.0263 0.0159,0.0127 1.4003,-0.1942 1.5792,-0.1828 c 6.9293,-1.2932 0.4994,0.2381 -0.0785,0.5224 -6.8704,3.3823 -11.3267,5.9483 -9.0304,6.6209 l 0.2441,0.0346 0.2514,0.004 0.256,-0.0108 0.2622,-0.0417 0.2866,-0.0385 0.4833,-0.1222 0.487,-0.1369 0.4649,-0.1562 0.2018,-0.0649 c -7.5685,6.4695 -13.1332,12.3834 -10.0565,12.6845 l 0.237,-0.0122 0.2307,-0.0448 0.2265,-0.0607 0.22,-0.0932 0.2438,-0.0941 0.3846,-0.2172 0.3813,-0.2324 0.3546,-0.2475 0.3135,-0.2126 0.2254,-0.1553 c -3.2664,5.1259 -6.3341,13.7823 -4.9777,16.5399 0.2994,0.6074 6.7159,-7.4784 6.6317,-6.8851 -0.0593,0.4175 -2.5195,5.6112 -4.2537,9.3665 -1.722,3.7287 -4.629,20.0254 0.3348,18.572 l 0.1735,-0.0929 0.1437,-0.1211 0.1287,-0.1355 0.0981,-0.1632 0.1156,-0.1732 0.1295,-0.3376 0.1163,-0.3513 0.0822,-0.3563 0.0774,-0.3095 0.0805,-0.3331 0.1003,-0.3657 0.1324,-0.3608 0.1502,-0.3702 0.2002,-0.3739 0.2015,-0.398 0.2356,-0.3929 0.252,-0.4025 0.2701,-0.4113 0.2857,-0.3971 0.3198,-0.4162 0.3373,-0.4246 0.3532,-0.411 0.3699,-0.4204 0.3847,-0.4059 0.4039,-0.415 0.146,-0.1446 0.0213,-0.0207 c -0.0159,0.404 -1.1486,2.8577 -1.6234,4.1069 l -0.0848,0.1202 -0.0221,0.0677 -0.1531,0.343 -0.1105,0.3407 -0.1267,0.3597 -0.0984,0.3751 -0.1264,0.3588 -0.0819,0.3578 -0.099,0.3741 -0.0708,0.3904 -0.2027,1.2055 -0.1684,1.1702 -0.0975,1.1843 -0.0754,1.116 -0.0145,1.097 0.0185,1.0619 0.068,1.0102 0.0734,0.959 0.023,0.337 0.0499,0.3515 0.0402,0.3198 0.038,0.3189 0.0567,0.3016 0.0553,0.3019 0.0561,0.3013 0.0445,0.269 0.0723,0.2832 0.0836,0.3178 0.1111,0.3333 0.0947,0.3507 0.1936,0.5161 0.2058,0.5491 0.2503,0.5477 0.2594,0.5811 0.2942,0.5459 0.2772,0.563 0.3104,0.5286 0.2988,0.4947 0.3549,0.5278 0.3753,0.4584 0.3665,0.4246 0.3702,0.375 0.1874,0.1616 0.2058,0.1448 0.1766,0.1282 0.2106,0.0935 0.1814,0.0774 0.1826,0.0782 0.1882,0.0272 0.1874,0.0267 0.0445,-0.002 0.0445,-0.001 0.1763,-0.007 0.1216,-0.038 0.121,-0.0383 0.1211,-0.0382 0.2052,-0.1253 0.1647,-0.1746 0.11,-0.2064 0.083,-0.2222 0.027,-0.2543 0.0428,-0.2716 -0.0335,-0.5051 -0.0612,-0.5207 -0.1063,-0.5188 -0.0839,-0.4524 -0.0944,-0.4858 -0.0893,-0.5369 -0.0448,-0.5375 -0.0289,-0.5561 0.0312,-0.5746 0.0221,-0.6083 0.0646,-0.6097 0.0822,-0.6276 0.0975,-0.6446 0.1262,-0.6288 0.159,-0.6633 0.1749,-0.6811 0.0672,-0.2172 c 0.2562,0.3677 0.5162,0.7331 0.7815,1.0979 l -0.017,0.4045 0.0184,0.9275 0.0125,0.9779 0.0564,0.7067 0.057,0.7061 0.0833,0.7223 0.1123,0.7387 0.1397,0.7535 0.1559,0.737 0.1945,0.7857 0.1839,0.7523 0.2393,0.7847 0.2384,0.7838 0.2826,0.782 0.3002,0.7657 0.2996,0.765 0.3274,0.7813 0.3886,0.7614 0.3592,0.746 0.3053,0.5797 0.3319,0.5944 0.322,0.5622 0.3657,0.5601 0.3376,0.5445 0.3821,0.5426 0.3983,0.5258 0.3716,0.5091 0.0275,0.0159 0.1828,0.2129 0.6356,0.7696 0.6922,0.8013 0.3824,0.4071 0.3699,0.375 0.3716,0.3742 0.3592,0.3413 0.4158,0.3727 0.4195,0.3217 0.3983,0.2554 0.3869,0.222 0.1942,0.1117 0.1979,0.0598 0.1553,0.0621 0.1704,0.0442 0.1885,0.0266 0.1488,-0.0215 0.1777,-0.007 0.1477,-0.023 0.1551,-0.0728 0.0994,-0.1043 0.099,-0.1055 0.0442,-0.1369 0.0604,-0.1542 0.005,-0.1845 -0.0224,-0.2021 -0.007,-0.2192 -0.1225,-0.5017 -0.1437,-0.5681 -0.2126,-0.6338 -0.2205,-0.6661 -0.2228,-0.667 -0.2333,-0.6996 -0.2438,-0.7333 -0.2007,-0.7356 -0.1942,-0.7852 -0.1678,-0.7705 -0.1335,-0.8042 -0.0618,-0.7911 -0.0351,-0.7747 -0.0465,-0.8082 -0.0159,-0.7432 c 0.2228,-0.0896 0.2446,-3.8883 0.4887,-3.6666 0.1131,0.1026 0.2568,0.765 0.4102,1.5865 l 0.1414,0.9306 0.2347,1.3748 0.2954,1.3556 0.3838,1.3524 0.3994,1.3345 0.4442,1.334 0.5051,1.3144 0.5389,1.2793 0.5709,1.2438 0.6154,1.2433 0.6647,1.19 0.6809,1.1733 0.7591,1.1364 0.3549,0.5266 0.3705,0.5097 0.3716,0.5088 0.415,0.5083 0.3875,0.4915 0.4031,0.4745 0.4048,0.4746 0.3917,0.441 0.4383,0.4394 0.4368,0.4399 0.4096,0.4238 0.4428,0.3886 0.4422,0.3887 0.4589,0.371 0.4595,0.3714 0.4484,0.3379 0.0542,0.0314 0.2721,0.2101 0.2982,0.2248 0.5029,0.3699 0.5207,0.3518 0.4921,0.3364 0.4972,0.2858 0.2208,0.1261 0.2384,0.11 0.2265,0.076 0.2265,0.0765 0.1882,0.0266 0.2041,0.009 0.193,-0.0235 0.1817,-0.0578 0.0774,-0.0366 0.0661,-0.0697 0.0385,-0.0859 0.0386,-0.0859 -0.006,-0.2186 -0.0723,-0.2843 -0.1553,-0.3319 -0.1769,-0.3983 -0.233,-0.4306 -0.2449,-0.4626 -0.4873,-0.9278 -0.5204,-1.0261 -0.2495,-0.5477 -0.2605,-0.5814 -0.2438,-0.5983 -0.2446,-0.5984 -0.0116,-0.0326 -0.4272,-1.2164 -0.4388,-1.2492 -0.4051,-1.2844 -0.3614,-1.2852 -0.2585,-1.05 c -0.002,-0.0252 -0.007,-0.0521 -0.0122,-0.0822 -0.0842,-0.4235 -0.4822,-2.4908 -0.686,-3.9537 l -0.0261,-0.2773 -0.0453,-0.4031 0.0113,-0.371 0.01,-0.3719 0.2665,0.7999 0.267,0.8 0.2832,0.7826 0.2945,0.8161 0.3104,0.7982 0.3379,0.8141 0.3277,0.7801 0.339,0.8153 0.3433,0.7634 0.3546,0.7968 0.3719,0.7795 0.3719,0.779 0.3872,0.7622 0.4051,0.7438 0.3597,0.7467 0.4215,0.7265 0.4215,0.7273 0.3932,0.711 0.4382,0.7095 0.4258,0.6763 0.0105,0.0329 0.4555,0.6919 0.4697,0.6741 0.5145,0.673 0.5051,0.6392 0.5202,0.6228 0.58,0.6029 0.553,0.587 0.5876,0.5525 0.5854,0.5514 0.5927,0.5017 0.6242,0.4666 0.6259,0.4663 0.6304,0.4158 0.663,0.3799 0.6517,0.348 0.6704,0.3297 0.5185,0.2171 0.536,0.2002 0.5261,0.1652 0.5406,0.1494 0.559,0.1318 0.536,0.0649 0.5627,0.0805 0.5244,0.0309 0.0445,-0.002 0.5405,0.0145 -0.2817,-0.3776 -0.2378,-0.3792 -0.2832,-0.5131 -0.3546,-0.6619 -0.3994,-0.7954 -0.8422,-1.8581 -0.9706,-2.1742 -0.9876,-2.2924 -0.6423,-1.5298 c -0.0258,-0.0689 -0.0547,-0.1412 -0.0924,-0.2223 l -0.01,-0.0204 -0.2263,-0.5369 -0.9263,-2.1758 -0.7931,-1.9114 0.6205,0.9215 0.6083,0.8895 0.6103,0.8881 0.6086,0.889 0.5984,0.8552 0.5981,0.8555 0.6134,0.8376 0.6154,0.8382 0.7588,1.0012 0.7475,0.968 0.7356,0.9349 0.726,0.9011 0.7248,0.9012 0.7027,0.8359 0.7194,0.8164 0.6971,0.7506 0.6701,0.7345 0.686,0.7177 0.6369,0.6347 0.6693,0.5992 0.6298,0.5508 0.5925,0.5009 0.5964,0.4504 0.5873,0.4178 0.5638,0.3504 0.5803,0.3333 0.5692,0.2994 0.5584,0.2664 0.5916,0.2316 0.5913,0.2313 0.5967,0.1806 0.5681,0.1644 0.6037,0.1304 0.5743,0.114 0.6075,0.0788 c 0.7784,0.2279 5.7963,0.8968 6.7771,1.0289 0.9802,0.1318 2.1597,0.1823 3.1385,0.1165 -20.0772,-13.2071 -38.4891,-40.7477 -19.688,-62.7429 0.2092,-0.248 0.7219,-0.6942 0.9053,-0.8036 -2.7606,-2.6543 -3.4225,-1.5726 -8.6898,-9.375 -1.8831,-2.7887 -3.4719,-6.8372 -4.4025,-11.3499 l 4.4212,6.2266 9.7069,4.9895 c 0,0 4.9998,9.25 5.3748,10.3751 0.375,1.1251 2.556,6.7045 2.556,6.7045 l 12.8075,9.7619 -0.3212,1.98 c -0.0289,-0.1561 -0.0567,-0.3123 -0.083,-0.4677 l -0.0743,-0.0513 -1.2838,-0.9054 -1.2699,-0.9119 -1.2334,-0.9096 c -1.1497,-0.9031 -9.3418,-7.7074 -7.8162,-2.2904 l 0.0839,0.2772 0.1091,0.3022 0.1304,0.3107 0.1454,0.3044 0.1868,0.322 0.2081,0.3305 0.2438,0.3323 0.2707,0.356 0.2982,0.3796 0.3277,0.3676 0.3764,0.3991 0.3909,0.3929 0.3966,0.4068 0.4382,0.4257 0.4544,0.4187 0.4958,0.4354 0.4957,0.4366 0.5171,0.4439 0.5377,0.4529 0.5587,0.4612 0.4703,0.3773 0.4717,0.3768 0.4856,0.3704 0.4861,0.3708 0.5074,0.3787 0.506,0.3793 0.5074,0.3787 0.5275,0.3878 -1.1775,-0.5672 -1.3368,-0.6585 -1.4207,-0.6908 -1.4057,-0.6985 -1.3286,-0.6789 -1.1325,-0.5859 -0.4779,-0.2693 -0.3943,-0.235 -0.3039,-0.1859 -0.2205,-0.1514 -0.2109,-0.1723 -0.0822,0.2602 -0.009,0.0215 -0.0683,0.2546 -0.0397,0.2769 -0.0459,0.2628 -0.005,0.2809 0.0108,0.2733 0.0244,0.2687 0.0465,0.2764 0.0612,0.2693 0.1125,0.3532 0.1282,0.3469 0.1485,0.3541 0.1786,0.343 0.2143,0.3455 0.2143,0.345 0.2437,0.3325 0.2793,0.3356 0.28,0.3348 0.3093,0.3228 0.3155,0.3379 0.3387,0.3099 0.3538,0.3038 0.3747,0.3124 0.383,0.2923 0.3977,0.2857 0.021,0.008 0.3914,0.2701 0.4133,0.2792 0.421,0.2594 0.428,0.2727 0.4275,0.273 0.451,0.2457 0.4419,0.2674 0.4581,0.2605 0.4719,0.2542 0.4717,0.2551 0.2571,0.131 -0.0122,0.076 2.1311,1.3793 -1.0403,-0.1956 -0.6942,-0.2338 -0.8209,-0.2985 -0.813,-0.3209 -0.7832,-0.3328 -0.7625,-0.324 -0.0207,-0.01 -0.3691,-0.1749 -0.3699,-0.1761 -0.3546,-0.1814 -0.3331,-0.1743 -0.6168,-0.3498 -0.5536,-0.3246 -0.2764,-0.1627 -0.256,-0.1536 -0.2432,-0.1239 -0.2018,-0.1071 -0.1823,-0.0624 -0.1499,-0.0247 -0.0652,0.0102 -0.0655,0.01 -0.0595,0.0255 -0.038,0.0334 -0.07,0.0814 -0.0491,0.0896 -0.0283,0.0992 -0.0136,0.0924 0.0144,0.1162 0.0136,0.1157 0.0352,0.1253 0.0493,0.1176 0.1117,0.2667 0.1474,0.2685 0.1531,0.284 0.1689,0.277 0.1035,0.1649 0.0983,0.1505 0.0122,0.0295 0.1565,0.2481 0.1766,0.2565 0.1769,0.2562 0.1919,0.2495 0.1913,0.2509 0.2217,0.2372 0.2276,0.2529 0.2282,0.2528 0.2356,0.2308 0.2576,0.2406 0.2571,0.2398 0.2716,0.2339 0.2786,0.2489 0.2866,0.2276 0.2866,0.2279 0.3019,0.2214 0.6514,0.4754 0.6891,0.4419 0.7047,0.4351 0.7489,0.4164 0.7577,0.396 0.7863,0.3841 0.8167,0.3708 0.8399,0.3438 0.1173,0.0445 0.0485,0.0822 3.2301,1.5398 -0.2971,-0.0428 -0.5352,-0.0717 -0.54,-0.0865 -0.5465,-0.1012 -0.5269,-0.0927 -0.5318,-0.108 -0.5295,-0.1428 -0.5009,-0.1562 -0.506,-0.1707 -0.4705,-0.1675 -0.4615,-0.1888 -0.4414,-0.1814 -0.4198,-0.1718 -0.4198,-0.1718 -0.3991,-0.1635 -0.3663,-0.125 -0.3228,-0.1075 -0.1494,-0.0243 -0.1341,-0.0312 -0.1287,-0.0153 -0.1159,0.0136 -0.1015,0.008 -0.089,0.0372 -0.0884,0.0371 -0.0766,0.0672 -0.0405,0.0686 -0.0343,0.0842 -0.0408,0.0691 -0.0131,0.0927 9e-4,0.0862 0.0164,0.0802 0.008,0.1009 0.0439,0.1041 0.0862,0.2063 0.1074,0.2163 0.1505,0.2327 0.1846,0.2356 0.1743,0.2055 0.1936,0.2151 0.1945,0.2143 0.2151,0.2228 0.4323,0.4097 0.4212,0.3806 0.1148,0.1083 0.006,0.0151 0.2863,0.2276 0.2934,0.2426 0.3081,0.2359 0.3166,0.2157 0.3223,0.2302 0.3311,0.2092 0.3521,0.2174 0.3458,0.2029 0.451,0.2458 0.4569,0.2605 0.4805,0.2339 0.4748,0.2185 0.474,0.2188 0.4892,0.2129 0.4981,0.1908 0.4972,0.1922 0.4861,0.1621 0.1888,0.0635 0.0357,0.0615 4.0014,1.5171 -0.2149,-5e-4 -0.4595,-0.0162 -0.4447,-0.0229 -0.4295,-0.0287 -0.4212,-0.0499 -0.3994,-0.0414 -0.377,-0.068 -0.3617,-0.0743 -0.3532,-0.0952 -0.3172,-0.0938 -0.2965,-0.0842 -0.3379,-0.1023 -0.3473,-0.0805 -0.3404,-0.0655 -0.1944,-0.006 -0.1783,-0.0125 -0.1667,0.0182 -0.1607,0.0326 -0.148,0.0615 -0.1202,0.0859 -0.0468,0.0544 -0.0476,0.0542 -0.0462,0.0547 -0.0343,0.0833 -0.008,0.021 -0.009,0.0215 -0.0136,0.0924 -0.013,0.0924 0.0221,0.0953 0.0221,0.0947 0.0289,0.1099 0.0584,0.0973 0.0646,0.1125 0.0788,0.106 0.1945,0.214 0.2293,0.2172 0.2509,0.2248 0.3027,0.2222 0.2886,0.1908 0.3106,0.2015 0.3394,0.188 0.3251,0.1941 0.3549,0.1817 0.3339,0.1738 0.341,0.1519 0.3212,0.144 0.2248,0.0797 0.2106,0.0862 0.2038,0.0711 0.1823,0.0621 0.1766,0.0485 0.1981,0.0564 0.1973,0.0558 0.1976,0.0567 0.2123,0.0496 0.2123,0.0507 0.2336,0.0587 0.227,0.0437 0.6452,0.1295 0.6823,0.1321 0.2415,0.0377 0.1689,0.1126 4.4074,1.0907 -0.3943,0.1409 -0.5511,0.1789 -0.5638,0.1488 -0.5553,0.1284 -0.5525,0.0921 -0.0504,0.004 -0.2832,0.0317 -0.377,0.0536 -0.1755,0.0388 -0.1545,0.0471 -0.0589,0.0244 -0.0593,0.0252 -0.038,0.0332 -0.0167,0.0422 0.006,0.0142 -0.0128,0.0929 0.0216,0.0947 0.0371,0.0893 0.0584,0.0972 0.0788,0.1061 0.1006,0.1148 0.1426,0.1315 0.1627,0.1403 0.1936,0.1276 0.2067,0.1221 0.2497,0.1389 0.2733,0.1123 0.3931,0.148 0.3915,0.1485 0.381,0.1193 0.3948,0.1128 0.3742,0.1035 0.362,0.0746 0.3827,0.083 0.356,0.0601 0.364,0.0388 0.3492,0.0448 0.343,0.0304 0.3376,0.0153 0.1772,0.005 0.1598,0.1057 2.3658,0.4034 -1.0372,0.4782 c -3.9356,0.9774 -7.7377,3.5107 -9.8064,8.3648 7.2309,-2.7596 10.5111,-3.3078 17.2193,-3.6754 l 0.0349,-2.4656 c 3.3735,-0.1675 5.0876,-1.8609 11.7144,-1.8301 4.1763,0.0193 6.3071,0.8652 6.3281,0.8638 l 4.0785,-1.1903 -3.5374,-4.5298 0.1165,-0.0516 c -0.0226,-0.0683 -0.0428,-0.1394 -0.0609,-0.214 l -0.0553,-0.144 c -0.0408,-0.1054 -0.1902,-0.3226 -0.3379,-0.5028 -0.123,-0.15 -0.2355,-0.2722 -0.2596,-0.2682 -0.2013,0.0329 -0.396,0.0666 -0.5845,0.1009 -0.3107,-0.8317 -1.2243,-1.434 -2.3032,-1.434 -1.3351,0 -2.4174,0.9221 -2.4174,2.0599 0,0.1641 0.0227,0.3237 0.0652,0.4771 -1.2296,0.28 -2.5129,0.4646 -4.4229,0.4187 l -0.4983,-0.012 0.4782,-0.1811 c 0.6103,-0.231 1.2183,-0.4464 1.7334,-0.6287 0.7787,-0.2753 1.3391,-0.474 1.3411,-0.4839 0.0337,-0.1488 0.0697,-0.3211 0.1043,-0.4853 0.3146,-1.4995 0.4921,-2.3456 2.6019,-2.3456 0.9811,0 1.8862,0.2038 2.632,0.5743 -2.4282,-1.7436 -7.2522,-5.2997 -10.3624,-7.979 -0.6865,-0.5916 -1.2676,-1.137 -1.7543,-1.6257 l -0.0139,-0.01 -0.005,-0.004 -0.006,-0.004 -0.0677,-0.0471 -0.005,-0.003 -0.005,-0.003 -0.0675,-0.049 -0.005,-0.003 -0.0723,-0.0538 -0.004,-0.003 -0.001,-9e-4 -0.0706,-0.0544 -0.003,-0.003 -0.006,-0.005 -0.0652,-0.0524 -0.003,-0.003 -0.0706,-0.0587 -0.003,-0.002 -0.001,-10e-4 -0.0688,-0.0592 -0.002,-0.002 -3e-4,-6e-4 -0.0689,-0.0617 -0.002,-0.002 -0.0694,-0.0641 -0.001,-10e-4 -0.0607,-0.0587 -0.008,-0.008 -9e-4,-10e-4 -0.009,-0.009 -0.059,-0.0595 -8e-4,-6e-4 -0.0587,-0.0606 -0.009,-0.01 -8e-4,-2e-4 -0.0128,-0.0139 -0.0547,-0.059 c -2.281,-1.116 -3.3392,-2.4449 -5.1412,-7.251 l 0.0176,0.005 0.0181,0.005 0.0159,0.004 0.002,3e-4 0.0181,0.005 0.0179,0.005 0.0136,0.004 0.004,10e-4 0.0184,0.005 0.0176,0.005 0.0124,0.003 0.006,0.002 0.0181,0.005 0.0179,0.005 0.0102,0.003 0.008,0.003 0.0179,0.005 0.0184,0.005 0.008,0.003 0.01,0.003 0.0179,0.005 0.0187,0.006 0.007,0.002 0.0113,0.004 0.0185,0.006 0.0184,0.006 0.005,10e-4 0.0139,0.005 0.0184,0.006 0.0187,0.006 0.003,8e-4 0.0161,0.005 0.0185,0.006 0.0195,0.006 0.0176,0.006 0.0187,0.006 0.0176,0.006 0.001,3e-4 0.0187,0.006 0.019,0.006 0.0153,0.005 0.003,9e-4 0.019,0.007 0.0326,0.011 0.005,0.001 0.0377,0.013 0.0119,0.004 0.007,0.002 0.0193,0.007 0.019,0.007 0.01,0.003 0.01,0.003 0.0193,0.007 0.019,0.007 0.007,0.002 0.0119,0.004 0.019,0.007 0.019,0.007 0.006,0.002 0.0136,0.005 0.002,5e-4 0.0366,0.0131 0.003,10e-4 0.0159,0.006 0.0195,0.007 0.0193,0.007 0.002,6e-4 0.0176,0.007 0.0195,0.007 0.0185,0.007 8e-4,0 0.0193,0.007 0.0363,0.0136 0.003,8e-4 0.019,0.007 0.0198,0.007 0.0148,0.006 0.005,0.002 0.019,0.007 0.0198,0.007 0.0125,0.005 0.007,0.003 c 0.0924,0.0348 0.1848,0.0708 0.2772,0.1077 l 3e-4,3e-4 0.0326,0.0127 0.0244,0.01 0.008,0.003 0.0329,0.0131 0.0159,0.006 0.0173,0.007 0.0334,0.0133 0.007,0.003 0.0261,0.0108 0.0306,0.0125 0.002,8e-4 0.0328,0.0137 0.0222,0.009 0.0113,0.005 0.0329,0.0136 0.013,0.005 0.0199,0.008 0.0334,0.0139 0.004,0.001 0.0289,0.0122 0.0281,0.0116 0.005,0.002 0.0332,0.0139 0.0187,0.008 0.0147,0.006 0.0329,0.0139 0.0102,0.004 0.0556,0.0236 0.001,5e-4 0.032,0.0133 0.025,0.0108 0.008,0.003 0.0329,0.0139 0.0159,0.007 0.0167,0.007 0.0405,0.017 0.0255,0.0111 0.0312,0.0133 0.002,5e-4 0.0329,0.0142 0.0221,0.009 0.0102,0.005 0.0329,0.0142 0.0133,0.006 0.0193,0.008 0.0326,0.0141 0.005,0.002 0.0278,0.0122 0.0281,0.0122 0.005,0.002 0.0326,0.0142 0.019,0.008 0.0133,0.006 0.0326,0.0139 0.01,0.005 0.0219,0.009 0.0323,0.0138 0.002,9e-4 0.0306,0.013 0.0252,0.0111 0.007,0.003 0.0315,0.0139 0.0167,0.007 0.0153,0.007 0.0323,0.0139 0.007,0.003 0.0241,0.0105 0.0309,0.0136 0.001,3e-4 0.0315,0.0139 0.0221,0.01 0.01,0.004 0.0315,0.0136 0.0136,0.006 0.0176,0.008 0.0314,0.0136 0.005,0.002 0.0269,0.0116 0.0275,0.0122 0.003,10e-4 0.0309,0.0133 0.0193,0.008 0.0116,0.005 0.0309,0.0136 0.0113,0.005 0.0196,0.009 0.0309,0.0133 0.002,10e-4 0.0284,0.0119 0.0247,0.0108 0.006,0.003 0.0298,0.0131 0.017,0.007 0.0136,0.006 0.0303,0.0131 0.008,0.003 0.0218,0.01 0.03,0.0128 c -0.157,-0.3561 -0.2406,-0.7232 -0.2406,-1.0985 0,-0.1029 0.007,-0.2049 0.0187,-0.3064 0.068,0.5655 0.3234,1.1095 0.7387,1.622 1.6781,0.6843 3.9475,0.9915 5.5556,0.0374 l 8.8852,-0.22 6.427,1.6671 0.9527,0 c 0.4153,0.089 0.8467,0.1363 1.2887,0.1363 0.5717,0 1.1245,-0.0785 1.6497,-0.2247 -2.5112,1.5689 -6.7501,2.5999 -11.556,2.5999 -3.3514,0 -6.4264,-0.5015 -8.8322,-1.3365 -1.9873,-0.69 -3.5178,-1.6076 -4.3707,-2.6595 1.6781,0.6843 3.9475,0.9915 5.5556,0.0374 l -0.008,-0.0913 c -1.974,0.0953 -3.9257,-1.2427 -5.4547,-2.2912 -0.8725,-0.5984 -1.6044,-1.0999 -2.0877,-1.1628 -0.3209,-0.0411 -0.5329,0.1469 -0.6052,0.7036 -0.0757,0.5833 -0.0629,1.1537 0.0266,1.7127 l 3e-4,3e-4 0.0326,0.0127 0.0244,0.01 0.008,0.003 0.0329,0.0131 0.0159,0.006 0.0173,0.007 0.0334,0.0133 0.007,0.003 0.0261,0.0108 0.0306,0.0125 0.002,8e-4 0.0328,0.0137 0.0222,0.009 0.0113,0.005 0.0329,0.0136 0.013,0.005 0.0199,0.008 0.0334,0.0139 0.004,10e-4 0.0289,0.0122 0.0281,0.0116 0.005,0.002 0.0332,0.0139 0.0187,0.008 0.0147,0.006 0.0329,0.0139 0.0102,0.004 0.0556,0.0236 0.001,5e-4 0.032,0.0133 0.025,0.0108 0.008,0.003 0.0329,0.0139 0.0159,0.007 0.0167,0.007 0.0405,0.017 0.0255,0.0111 0.0312,0.0133 0.002,5e-4 0.0329,0.0142 0.0221,0.009 0.0102,0.005 0.0329,0.0142 0.0133,0.006 0.0193,0.008 0.0326,0.0141 0.005,0.002 0.0278,0.0122 0.0281,0.0122 0.005,0.002 0.0326,0.0142 0.019,0.008 0.0133,0.006 0.0326,0.0139 0.01,0.005 0.0219,0.009 0.0323,0.0138 0.002,9e-4 0.0306,0.013 0.0252,0.0111 0.007,0.003 0.0315,0.0139 0.0167,0.007 0.0153,0.007 0.0323,0.0139 0.007,0.003 0.0241,0.0105 0.0309,0.0136 0.001,3e-4 0.0315,0.0139 0.0221,0.01 0.01,0.004 0.0315,0.0136 0.0136,0.006 0.0176,0.008 0.0314,0.0136 0.005,0.002 0.0269,0.0116 0.0275,0.0122 0.003,10e-4 0.0309,0.0133 0.0193,0.008 0.0116,0.005 0.0309,0.0136 0.0113,0.005 0.0196,0.009 0.0309,0.0133 0.002,10e-4 0.0284,0.0119 0.0247,0.0108 0.006,0.003 0.0298,0.0131 0.017,0.007 0.0136,0.006 0.0303,0.0131 0.008,0.003 0.0218,0.01 0.03,0.0128 c 0.3357,0.7599 1.0123,1.4689 1.9616,2.0965 -0.9164,-0.3963 -1.9902,-0.8808 -2.8757,-1.1152 l 0.0164,0.0422 0.0156,0.0423 0.0125,0.0334 0.003,0.009 0.0159,0.0417 0.0161,0.0414 0.009,0.0246 0.007,0.017 0.0156,0.0409 0.0153,0.0411 0.006,0.0158 0.009,0.025 0.0156,0.0405 0.0156,0.0403 0.003,0.007 0.0122,0.0326 0.0153,0.0403 0.0153,0.0388 3e-4,9e-4 0.0153,0.0394 0.0153,0.0394 0.0119,0.0303 0.003,0.009 0.0153,0.0388 0.0153,0.0389 0.009,0.0221 0.006,0.0164 0.0153,0.0383 0.0153,0.0383 0.005,0.0138 0.01,0.0241 0.015,0.0377 0.0145,0.0375 0.003,0.006 0.0122,0.0312 0.0156,0.0374 0.0136,0.0351 3e-4,0.002 0.015,0.0369 0.0153,0.0366 0.0108,0.0275 0.003,0.009 0.0153,0.0363 0.0142,0.036 0.008,0.0199 0.007,0.0161 0.0145,0.0357 0.0147,0.0355 0.005,0.0122 0.009,0.0229 0.0147,0.0352 0.0147,0.0348 0.002,0.005 0.0125,0.0298 0.0142,0.0346 0.0133,0.0323 10e-4,0.002 0.0142,0.0343 0.0144,0.034 0.0105,0.0247 0.004,0.009 0.0139,0.0338 0.0147,0.0334 0.007,0.0176 0.007,0.0156 0.0139,0.0331 0.0147,0.0329 0.004,0.0108 0.0102,0.0221 0.0139,0.0326 0.0139,0.0323 0.002,0.004 0.0127,0.0283 0.0142,0.0321 0.0125,0.0292 0.001,0.003 0.0139,0.0315 0.0142,0.0317 0.01,0.0224 0.004,0.009 0.0139,0.0315 0.0139,0.0309 0.007,0.0158 0.007,0.0151 0.0136,0.0309 0.0139,0.0303 c -1.0933,-1.3249 -1.8553,-2.7105 -2.0889,-4.1757 -0.0929,-0.0369 -0.1848,-0.0729 -0.2772,-0.1077 0.2475,1.832 1.2915,3.5322 2.774,5.1411 0.1054,0.1996 0.7262,1.1353 2.1277,2.5427 l -0.0139,-0.01 -0.005,-0.004 -0.006,-0.004 -0.0677,-0.0471 -0.005,-0.003 -0.005,-0.003 -0.0675,-0.049 -0.005,-0.003 -0.0723,-0.0538 -0.004,-0.003 -0.001,-9e-4 -0.0706,-0.0544 -0.003,-0.003 -0.006,-0.005 -0.0652,-0.0524 -0.003,-0.003 -0.0706,-0.0587 -0.003,-0.002 -0.001,-0.001 -0.0688,-0.0592 -0.002,-0.002 -3e-4,-6e-4 -0.0689,-0.0617 -0.002,-0.002 -0.0694,-0.0641 -0.001,-10e-4 -0.0607,-0.0587 -0.008,-0.008 -9e-4,-10e-4 -0.009,-0.009 -0.059,-0.0595 -8e-4,-6e-4 -0.0587,-0.0606 -0.009,-0.01 -8e-4,-2e-4 -0.0128,-0.0139 -0.0547,-0.059 c -2.281,-1.116 -3.3392,-2.4449 -5.1412,-7.251 l 0.0176,0.005 0.0181,0.005 0.0159,0.004 0.002,3e-4 0.0181,0.005 0.0179,0.005 0.0136,0.004 0.004,10e-4 0.0184,0.005 0.0176,0.005 0.0124,0.003 0.006,0.002 0.0181,0.005 0.0179,0.005 0.0102,0.003 0.008,0.003 0.0179,0.005 0.0184,0.005 0.008,0.003 0.01,0.003 0.0179,0.005 0.0187,0.006 0.007,0.002 0.0113,0.004 0.0185,0.006 0.0184,0.006 0.005,10e-4 0.0139,0.005 0.0184,0.006 0.0187,0.006 0.003,8e-4 0.0161,0.005 0.0185,0.006 0.0195,0.006 0.0176,0.006 0.0187,0.006 0.0176,0.006 0.001,3e-4 0.0187,0.006 0.019,0.006 0.0153,0.005 0.003,9e-4 0.019,0.007 0.0326,0.011 0.005,10e-4 0.0377,0.013 0.0119,0.004 0.007,0.002 0.0193,0.007 0.019,0.007 0.01,0.003 0.01,0.003 0.0193,0.007 0.019,0.007 0.007,0.002 0.0119,0.004 0.019,0.007 0.019,0.007 0.006,0.002 0.0136,0.005 0.002,5e-4 0.0366,0.0131 0.003,10e-4 0.0159,0.006 0.0195,0.007 0.0193,0.007 0.002,6e-4 0.0176,0.007 0.0195,0.007 0.0185,0.007 8e-4,0 0.0193,0.007 0.0363,0.0136 0.003,8e-4 0.019,0.007 0.0198,0.007 0.0148,0.006 0.005,0.002 0.019,0.007 0.0198,0.007 0.0125,0.005 0.007,0.003 c -0.0717,-0.5347 -0.076,-1.0803 -0.003,-1.6382 0.0961,-0.741 0.4102,-1.3138 0.8926,-1.2515 0.5451,0.0706 1.6263,0.5882 2.526,1.205 1.4913,1.0225 3.0691,2.3284 4.9595,2.2456 -1.116,-12.4047 2.1141,-17.9884 4.765,-32.525 l -10.691,-29.1309 c -8.9102,11.3777 -17.8909,19.6784 -32.6464,12.3548 l 0.0125,0.004 0.0119,0.004 0.0122,0.004 0.0125,0.004 0.0121,0.004 0.0125,0.004 0,0 0.0122,0.004 0.0125,0.004 0.0119,0.004 0.0119,0.004 0.0125,0.004 0.0122,0.004 0.0124,0.004 0.0122,0.004 0.0122,0.004 0.0122,0.004 0,0 0.0122,0.004 0.0122,0.004 0.0119,0.004 0.0122,0.004 3e-4,0 0.0119,0.004 0.0124,0.004 0.0122,0.004 3e-4,0 0.0119,0.004 0.0119,0.004 0,0 0.0125,0.004 0.0119,0.004 0,0 0.0122,0.004 0.0122,0.004 0.0122,0.004 0.0119,0.004 0.0119,0.004 0.0127,0.004 0.0122,0.004 0.0119,0.004 0.0122,0.004 0.0122,0.004 0.0122,0.004 0,0 0.0122,0.004 0.0116,0.004 0.0122,0.004 0.0122,0.004 0.0119,0.004 0,0 0.0119,0.004 0,0 0.0122,0.004 0.0122,0.004 0.0122,0.004 0.0119,0.004 0.0124,0.004 0,0 0.0117,0.004 0.0124,0.004 0.0119,0.004 0,0 0.0122,0.004 0.0114,0.004 0.0127,0.004 0,0 0.0119,0.004 0.0119,0.004 3e-4,0 0.0119,0.004 0.0122,0.004 0.0119,0.004 0.0119,0.004 0.0119,0.004 0.0122,0.004 0.0119,0.004 c 0.2526,0.0786 0.5023,0.1537 0.7495,0.2254 l 0.0102,0.003 c 0.0859,0.025 0.1698,0.0476 0.2557,0.0717 0.161,0.0457 0.3226,0.0922 0.4816,0.1353 0.0612,0.0164 0.1205,0.0309 0.1817,0.047 0.1831,0.0485 0.3657,0.097 0.5462,0.142 0.0573,0.0142 0.1134,0.0267 0.1704,0.0406 0.1786,0.0436 0.3572,0.087 0.5332,0.1272 0.1074,0.0244 0.2123,0.046 0.3183,0.0692 0.1242,0.0269 0.2497,0.0553 0.3728,0.0805 0.1063,0.0218 0.2106,0.0411 0.3163,0.0615 0.1216,0.0238 0.2441,0.0488 0.3651,0.0706 0.097,0.0179 0.1922,0.0329 0.2886,0.0496 0.1247,0.0215 0.2506,0.0439 0.3747,0.0635 0.099,0.0159 0.1962,0.0292 0.2951,0.0437 0.1185,0.0175 0.2376,0.036 0.3549,0.0518 0.0933,0.0125 0.1851,0.0227 0.2775,0.034 0.1205,0.0148 0.241,0.0309 0.3595,0.0437 0.0949,0.0105 0.1876,0.0181 0.2812,0.0272 0.1136,0.0111 0.2273,0.0233 0.3393,0.0326 0.1017,0.008 0.2012,0.0145 0.3013,0.0213 0.1026,0.007 0.2061,0.0156 0.3081,0.0215 0.0975,0.005 0.193,0.009 0.2897,0.0131 0.1032,0.005 0.2075,0.01 0.3096,0.013 0.0938,0.003 0.1862,0.003 0.2789,0.005 0.1015,0.002 0.2044,0.004 0.305,0.005 0.0947,3e-4 0.1882,-0.002 0.2823,-0.003 0.0973,-0.001 0.1959,-0.001 0.2926,-0.004 0.0856,-0.002 0.1698,-0.007 0.2548,-0.01 0.104,-0.004 0.2089,-0.007 0.311,-0.0133 0.0833,-0.005 0.1652,-0.011 0.248,-0.0167 0.1006,-0.007 0.2015,-0.0133 0.3005,-0.0218 0.0833,-0.007 0.1646,-0.0162 0.2469,-0.0244 0.1,-0.01 0.1998,-0.019 0.2987,-0.0303 0.0771,-0.009 0.1528,-0.0199 0.2296,-0.0298 0.0998,-0.0128 0.2002,-0.0252 0.2991,-0.0397 0.0845,-0.0122 0.1678,-0.0266 0.2517,-0.0402 0.0893,-0.0145 0.1786,-0.0281 0.267,-0.0437 0.0825,-0.0147 0.1639,-0.0315 0.2458,-0.0471 0.0907,-0.0175 0.1814,-0.0343 0.271,-0.053 0.0802,-0.0167 0.1593,-0.0354 0.2387,-0.0533 0.087,-0.0192 0.1737,-0.0382 0.2596,-0.0589 0.0896,-0.0216 0.1775,-0.0451 0.2662,-0.068 0.0754,-0.0196 0.1519,-0.0383 0.2265,-0.0587 0.0878,-0.0241 0.1746,-0.0502 0.2619,-0.0754 0.0757,-0.0221 0.1528,-0.0437 0.2279,-0.0666 0.0825,-0.0256 0.1647,-0.0525 0.246,-0.0791 0.0789,-0.0253 0.1574,-0.0502 0.2348,-0.0766 0.0785,-0.0266 0.1564,-0.0547 0.2341,-0.0822 0.0794,-0.0286 0.1607,-0.0564 0.2401,-0.0861 0.0788,-0.0295 0.1573,-0.0607 0.2361,-0.0913 0.0754,-0.0292 0.1511,-0.0581 0.2257,-0.0885 0.0836,-0.0337 0.1669,-0.0694 0.2497,-0.1046 0.07,-0.0292 0.1392,-0.0581 0.2078,-0.0884 0.0836,-0.0366 0.1661,-0.0743 0.2489,-0.112 0.0686,-0.0311 0.138,-0.062 0.2055,-0.0941 0.083,-0.0388 0.1644,-0.0793 0.2466,-0.1196 0.0669,-0.0326 0.1338,-0.0646 0.2007,-0.0981 0.0836,-0.0422 0.1661,-0.0856 0.2494,-0.129 0.0641,-0.0331 0.1284,-0.0663 0.1919,-0.1003 0.0817,-0.0439 0.1636,-0.0893 0.2455,-0.1344 0.0652,-0.036 0.1301,-0.0714 0.1945,-0.1082 0.0839,-0.0474 0.1672,-0.0964 0.2508,-0.1452 0.059,-0.0346 0.1177,-0.0686 0.1772,-0.104 0.0876,-0.0524 0.1746,-0.106 0.2619,-0.1599 0.0559,-0.0348 0.1126,-0.0691 0.1687,-0.1043 0.0861,-0.0544 0.1723,-0.11 0.2582,-0.1655 0.0553,-0.0363 0.1117,-0.0718 0.1673,-0.1086 0.0861,-0.0564 0.1715,-0.1142 0.2568,-0.1721 0.055,-0.0368 0.1105,-0.074 0.165,-0.1117 0.0912,-0.0623 0.1817,-0.1261 0.2721,-0.1899 l 0.1437,-0.1012 c 0.091,-0.0652 0.1817,-0.1315 0.2724,-0.1978 l 0.148,-0.1086 c 0.091,-0.0672 0.1814,-0.1358 0.2721,-0.2044 l 0.1423,-0.1083 c 0.0916,-0.0703 0.1834,-0.1417 0.2747,-0.2137 l 0.1386,-0.1083 c 0.0978,-0.0776 0.1956,-0.1564 0.2937,-0.2355 l 0.1136,-0.0913 c 0.1001,-0.0819 0.2007,-0.1653 0.3011,-0.2486 l 0.1111,-0.0921 c 0.1009,-0.0845 0.2021,-0.1701 0.3033,-0.2566 l 0.1091,-0.0927 c 0.1052,-0.0904 0.2112,-0.1814 0.3161,-0.2732 l 0.089,-0.0774 c 0.1117,-0.0978 0.2234,-0.197 0.3362,-0.2965 l 0.072,-0.0644 c 0.125,-0.1116 0.2503,-0.2239 0.3753,-0.3373 l 0.0224,-0.0207 c 2.5418,-2.3051 5.1579,-5.0238 8.2695,-7.8678 l -0.04,-0.1089 c 1.8905,-3.1957 4.5913,-6.3371 8.5964,-9.6029 1.2333,-0.2245 11.3754,-1.0208 19.8669,-1.3762 10.133,-0.4244 18.8991,-0.3946 20.855,-0.3946 4.9111,1.5483 6.1407,3.1258 9.6945,2.2161 l -0.2894,-4.4314 c -0.1188,-1.612 0.813,-2.3346 2.2572,-2.571 2.92,-0.6746 5.9026,-1.1358 8.8824,-1.4445 3.2304,-0.3348 6.4837,-0.4935 9.7316,-0.4935 3.0782,0 6.1611,0.1442 9.2251,0.4436 0.4215,0.0411 0.8427,0.0853 1.2637,0.1324 l -0.1792,-0.1166 -7.8993,-2.9962 c 0,0 -8.9889,-2.4514 -12.2573,-2.4514 -3.2689,0 -6.8102,2.179 -6.8102,2.179 -17.3509,8.2571 -50.5729,-12.1583 -63.466,-1.9066 l -11.2459,11.9597 -0.0839,-0.0683 -0.0822,0.0456 c -13.9955,6.3998 -24.0874,7.0546 -25.7851,25.0441 -0.7724,-15.8462 5.1531,-17.7945 15.1804,-21.0915 3.1019,-1.0196 6.4499,-2.599 10.254,-4.3571 -7.9401,-6.683 -13.4302,-16.183 -14.9275,-26.9609 -0.8504,9.601 -10.7269,17.1763 -22.7863,17.1763 -12.6181,0 -22.8467,-8.2928 -22.8467,-18.5224 0,-0.2509 0.008,-0.5006 0.0199,-0.7492 0.485,9.8821 10.5182,17.7735 22.8268,17.7735 11.7258,0 21.3871,-7.1623 22.6939,-16.3851 -0.2109,-1.7269 -0.32,-3.4855 -0.32,-5.2696 0,-6.8318 1.5942,-13.2906 4.4274,-19.0282 l -0.3538,-0.9652 13.4643,3.8384 7.4509,-0.0516 1.7059,-26.8387 c 5.9482,-3.4982 10.1636,-4.8061 17.2505,-2.5041 3.5022,1.9142 5.7152,5.5094 8.7211,7.6235 2.0222,1.4216 4.8143,1.3533 7.0554,2.74 1.2838,0.7942 1.2793,2.4131 2.9143,3.0546 l 8.9348,-4.2443 c -0.8816,-9.2101 -3.3868,-10.355 -14.3297,-13.5579 -7.7244,-2.2606 -14.1885,-10.738196 -15.1832,-11.087396 -5.1795,-0.4314 -9.3518,-0.9232 -12.7423,-1.2671 0.1221,-0.5057 0.1573,-1.042 0.0873,-1.5891 -0.2611,-2.0534 -1.8995,-3.5946 -3.8696,-3.8143 0.5015,0.6154 0.8433,1.3743 0.951,2.2201 0.1327,1.042 -0.1119,2.0446 -0.6256,2.8724 -0.197,-0.0142 -0.3906,-0.0275 -0.5811,-0.0394 -0.2024,-1.0815 -0.621,-2.141 -1.2679,-3.115 -2.2008,-3.3117 -6.3349,-4.5675 -9.9133,-3.2658 1.3887,0.6315 2.6234,1.6463 3.5302,3.0104 0.6058,0.9116 1.0109,1.8978 1.2266,2.9069 -2.4157,-0.8354 -5.1806,-0.5684 -7.4676,0.9649 -3.3029,2.2144 -4.5411,6.3539 -3.2244,9.926696 0.6256,-1.391296 1.6353,-2.630296 2.9959,-3.542496 0.9621,-0.6452 2.0084,-1.0658 3.0782,-1.275 -1.2212,3.3667 -2.0798,8.549496 -3.4532,16.365796 -8.1822,5.0003 -29.4239,2.0316 -33.6331,-9.8362 l -0.1695,-0.0785 c -14.487,13.93 -20.2635,22.4331 -23.1681,30.6734 6.8913,-39.653896 38.789,-63.132096 77.5128,-63.132096 21.0064,0 40.0867,7.9398 54.1871,20.8735 2.4931,2.611 2.1274,4.3049 2.0588,4.7554 -0.3042,1.9924 0.2724,3.9631 0.2724,5.787996 0,0.4768 -0.409,1.7705 -0.5448,2.3154 -0.756,3.0265 0.6834,4.6187 1.8388,7.2181 0,0 0.7487,1.6345 0.7487,1.226 0,-2.2408 -1.4984,-4.6848 1.1845,-7.2666 0.5213,-0.5012 1.0282,-0.8932 0.5182,0.0482 -2.4959,4.6068 2.7581,9.4938 5.4474,12.9384 1.2129,1.6875 1.4071,1.5696 1.9749,3.337 0.6131,1.9066 0.4935,8.2737 0.375,8.5118 -0.1619,0.3226 1.0709,-0.386 1.6058,-1.6945 0.5074,-1.2387 0.1721,-1.9707 2.2414,-3.3276 0.2474,1.9176 0.0938,9.2285 -0.9536,10.7427 -0.004,0.005 9.2324,-14.0261 1.6682,-24.2084 -1.4891,-1.9429 -0.8493,-1.5403 -0.7489,-1.4981 1.6166,0.6786 5.9434,3.1385 6.7416,0.7489 0,0 -1.9746,0 -2.7238,-0.8172 -0.7492,-0.817 -1.7705,-1.4981 -1.7705,-1.4981 0,0 -1.3754,-0.9414 -1.3618,-1.7363 0.0955,-5.5329 -11.101,-13.758196 -15.0111,-17.560596 l -0.0176,-0.0161 c -16.0716,-17.6707 -39.6649,-28.8307 -65.9676,-28.8307 z m 9.7251,207.816996 0.1667,0.0672 c -0.5468,-0.4099 -1.0834,-0.8243 -1.6027,-1.2433 l -0.2852,-0.1151 0,0 0.2852,0.1151 c -1.3726,-1.1081 -2.6227,-2.2504 -3.6054,-3.4418 0.1363,0.2979 0.269,0.5717 0.4011,0.8246 l 3e-4,2e-4 c -0.1324,-0.2531 -0.2651,-0.5269 -0.4014,-0.8248 l 0,-3e-4 -0.0139,-0.0303 -0.0136,-0.0309 -0.007,-0.0151 -0.007,-0.0158 -0.0139,-0.0309 -0.0139,-0.0315 -0.004,-0.009 -0.01,-0.0224 -0.0142,-0.0317 -0.0139,-0.0315 -0.001,-0.003 -0.0125,-0.0292 -0.0142,-0.0321 -0.0127,-0.0283 -0.002,-0.004 -0.0139,-0.0323 -0.0139,-0.0326 -0.0102,-0.0221 -0.004,-0.0108 -0.0147,-0.0329 -0.0139,-0.0331 -0.007,-0.0156 -0.007,-0.0176 -0.0147,-0.0334 -0.0139,-0.0338 -0.004,-0.009 -0.0105,-0.0247 -0.0144,-0.034 -0.0142,-0.0343 -0.001,-0.002 -0.0133,-0.0323 -0.0142,-0.0346 -0.0125,-0.0298 -0.002,-0.005 -0.0147,-0.0348 -0.0147,-0.0352 -0.009,-0.0229 -0.005,-0.0122 -0.0147,-0.0355 -0.0145,-0.0357 -0.007,-0.0161 -0.008,-0.0199 -0.0142,-0.036 -0.0153,-0.0363 -0.003,-0.009 -0.0108,-0.0275 -0.0153,-0.0366 -0.015,-0.0369 -3e-4,-0.002 -0.0136,-0.0351 -0.0156,-0.0374 -0.0122,-0.0312 -0.003,-0.006 -0.0145,-0.0375 -0.015,-0.0377 -0.01,-0.0241 -0.005,-0.0138 -0.0153,-0.0383 -0.0153,-0.0383 -0.006,-0.0164 -0.009,-0.0221 -0.0153,-0.0389 -0.0153,-0.0388 -0.003,-0.009 -0.0119,-0.0303 -0.0153,-0.0394 -0.0153,-0.0394 -3e-4,-9e-4 -0.0153,-0.0388 -0.0153,-0.0403 -0.0122,-0.0326 -0.003,-0.007 -0.0156,-0.0403 -0.0156,-0.0405 -0.009,-0.025 -0.006,-0.0158 -0.0153,-0.0411 -0.0156,-0.0409 -0.007,-0.017 -0.009,-0.0246 -0.0161,-0.0414 -0.0159,-0.0417 -0.003,-0.009 -0.0125,-0.0334 -0.0156,-0.0423 -0.0164,-0.0422 c 0.8855,0.2344 1.9593,0.7189 2.8757,1.1152 2.4812,1.6418 6.8207,2.7294 11.7581,2.7294 6.0333,0 11.1725,-1.6245 13.1222,-3.899 1.4306,-0.8839 2.4704,-2.3392 2.8009,-4.0479 1.3929,1.7802 2.2232,4.0215 2.2232,6.4568 0,5.3455 -4,9.7568 -9.1698,10.4048 l 0,3e-4 -1.5228,1.0026 c -0.6123,-0.18 -1.5494,-0.1953 -0.9819,-0.4595 1.1648,-0.5425 0.108,-1.5636 -1.2427,-1.5636 -1.3513,0 -2.4469,0.5539 -2.4469,1.2371 0,0.6369 2.9903,1.3277 4.4901,1.4181 l 0.595,1.8256 -4.0343,1.7829 -0.1009,0.0445 -0.5479,0.2421 c -0.0332,-0.1034 -0.0607,-0.2148 -0.0825,-0.335 -0.5431,-3.0325 -4.4864,-5.8485 -8.6477,-8.8197 -0.9799,-0.6996 -1.9723,-1.408 -2.9338,-2.1294 l -0.1667,-0.0672 z"
       style="fill:#ffffff;fill-opacity:1;fill-rule:evenodd;stroke:none"
       id="path4210"
       inkscape:connector-curvature="0" /><path
       d="m 216.2897,181.85521 c -2.5302,-0.5453 -5.3317,-0.9762 -8.3333,-1.2696 -2.9052,-0.2837 -5.955,-0.4365 -9.0805,-0.4365 -3.3157,0 -6.5355,0.1703 -9.578,0.4856 -3.1439,0.3257 -6.0729,0.8064 -8.7009,1.4142 -0.9474,0.2117 -1.232,0.8648 -1.0539,1.8263 l 0.6783,10.3896 -4.4167,0 c -2.9168,0 -5.5672,1.1922 -7.4874,3.1124 -1.0321,1.0327 -1.8544,2.2762 -2.3936,3.6587 l 6.4245,-0.296 7.1838,-0.3339 c 0.6707,-0.0606 1.1469,0.1585 1.2552,0.9105 l 1.8181,22.6814 -0.4677,0 0.004,0.1089 -10.2892,-0.1607 -4.3509,-0.1242 -1.3215,0.7931 c 0.5295,1.1427 1.2569,2.1768 2.1373,3.0572 1.9202,1.9202 4.5706,3.1124 7.4874,3.1124 l 1.8879,0 c 6.7411,-3.725 8.8705,-0.5343 11.101,-0.3676 0.6787,0.5034 2.3324,-4.0303 10.3457,-0.906 0.1564,-4.405 -0.4244,-10.8031 5.1448,-10.6426 4.2387,0.1221 3.2769,10.3337 3.2769,10.3337 2.2294,-0.3864 3.8018,-0.6033 5.9216,-0.586 l 3.8758,-44.9711 c 0.0915,-1.0627 -0.5777,-1.6911 -1.0687,-1.7898 z m -17.0779,6.1342 c -0.3399,41.5174 -1.2132,43.4404 -2.0846,1.3802 -1.9539,-0.6075 -5.0709,-1.1815 2.0846,-1.3802 z m 7.5912,0.4195 c -1.2796,37.0659 -1.6937,38.6754 -1.6756,1.1251 0,-0.005 -6.8394,-1.7603 1.6756,-1.1251 z m -15.8958,0.37 c 0.6851,48.0804 0.2741,50.1687 -1.9871,1.4595 -0.019,-0.4203 -4.4873,-0.8716 1.9871,-1.4595 z m -7.8985,-2.5682 c -0.0899,-2.9948 12.5759,-3.4044 14.9377,-3.293 2.0481,0.0964 16.6465,-0.5293 16.136,3.0597 -2.9424,42.4837 -3.3412,47.2975 -2.5231,0.9116 0.121,-2.4117 -10.6875,-2.2056 -12.9674,-2.228 -2.2969,-0.0227 -13.9028,-0.1525 -13.8382,3.0189 0.4113,20.6447 -1.4233,14.6579 -1.745,-1.4692"
       style="fill:#ffffff;fill-opacity:1;fill-rule:nonzero;stroke:none"
       id="path4212"
       inkscape:connector-curvature="0" /><path
       d="m 157.1667,215.51101 6.5375,8.8526 3.4047,-2.0429 4.7667,0.1363 8.7163,0.1361 -0.2724,-6.9458 -0.6154,-9.4699 -0.6339,-4.1752 -6.6534,0.2254 -7.4869,0.3449 -4.3583,1.0897 -2.3153,2.8601 -1.7708,-0.2724 c -8.515,-4.1439 -18.2914,-8.3352 -22.3047,-6.2277 -2.677,1.4057 -7.0971,4.1428 -10.1599,6.1098 l 5.6596,15.2396 c 2.0078,-1.9 4.7594,-6.247 6.7845,-7.6311 9.0317,1.2481 14.625,2.7924 20.7017,1.7705"
       style="fill:#ffffff;fill-opacity:1;fill-rule:evenodd;stroke:none"
       id="path4214"
       inkscape:connector-curvature="0" /><path
       d="m 78.376,329.31921 c 1.5701,0.8702 2.9653,1.6452 4.1754,2.3201 1.2152,0.6702 2.2351,1.3252 3.0654,1.9554 0.8246,0.6349 1.455,1.2849 1.8799,1.9599 0.4298,0.6701 0.6401,1.4451 0.6401,2.3201 0,0.4802 -0.055,0.9201 -0.1701,1.3153 -0.1148,0.3949 -0.2851,0.7299 -0.5153,1.01 -0.235,0.2749 -0.5247,0.4901 -0.8748,0.64 -0.3498,0.15 -0.7602,0.2251 -1.2353,0.2251 -0.235,0 -0.5097,-0.0451 -0.8249,-0.1352 -0.3152,-0.0899 -0.6449,-0.2098 -0.9998,-0.3498 -0.3552,-0.1451 -0.7152,-0.3101 -1.0851,-0.4901 -0.3702,-0.18 -0.72,-0.36 -1.0505,-0.5451 -0.3297,-0.1848 -0.6347,-0.3651 -0.915,-0.5349 -0.2747,-0.1752 -0.4998,-0.32 -0.6747,-0.4351 l -0.915,0 0,3.7153 c 0.2846,0.1049 0.6347,0.2399 1.0497,0.4 0.4201,0.1599 0.9051,0.3098 1.455,0.455 0.5502,0.1451 1.1656,0.2701 1.8405,0.375 0.6798,0.1049 1.4148,0.155 2.215,0.155 1.0752,0 2.075,-0.1051 3.0104,-0.32 0.9298,-0.2151 1.7399,-0.5301 2.4248,-0.94 0.6851,-0.4152 1.2251,-0.9351 1.6154,-1.5502 0.3898,-0.62 0.5899,-1.3351 0.5899,-2.145 0,-0.6653 -0.0901,-1.2651 -0.2701,-1.8051 -0.1752,-0.5451 -0.4397,-1.0502 -0.79,-1.5253 -0.3501,-0.47 -0.7852,-0.9199 -1.3,-1.3451 -0.5199,-0.4201 -1.1149,-0.845 -1.7949,-1.2651 -0.6755,-0.4249 -1.4301,-0.86 -2.2652,-1.315 -0.8305,-0.4501 -1.7353,-0.93 -2.7204,-1.4502 l 0,-0.2749 2.4004,0.3149 4.595,0 c 0.1851,0 0.3251,0.0502 0.4249,0.1451 0.1003,0.095 0.1703,0.2251 0.2202,0.385 l 0.5698,1.9902 1.8153,0 0,-6.1804 -15.586,0 0,2.9251 z"
       style="fill:#ffffff;fill-opacity:1;fill-rule:nonzero;stroke:none"
       id="path4216"
       inkscape:connector-curvature="0" /><path
       d="m 106.073,325.97401 c -1.2852,0 -2.4556,0.2001 -3.5206,0.6001 -1.0647,0.4 -1.98,0.9751 -2.74,1.7252 -0.7653,0.75 -1.3603,1.6599 -1.7804,2.7351 -0.4249,1.0752 -0.6347,2.2802 -0.6347,3.6304 0,1.235 0.2047,2.385 0.6202,3.45 0.415,1.0602 1.0049,1.9851 1.7646,2.7652 0.7651,0.7852 1.6903,1.4 2.7754,1.8502 1.0902,0.4498 2.3003,0.6749 3.6354,0.6749 1.4647,0 2.74,-0.235 3.8251,-0.7101 1.0851,-0.47 1.9902,-1.11 2.7051,-1.91 0.72,-0.7999 1.2549,-1.72 1.6101,-2.7652 0.3549,-1.0499 0.5349,-2.15 0.5349,-3.3051 0,-1.2252 -0.2047,-2.3701 -0.6146,-3.4354 -0.4104,-1.0649 -0.9955,-1.9899 -1.7603,-2.7751 -0.7654,-0.7849 -1.69,-1.4051 -2.7751,-1.855 -1.0851,-0.4501 -2.3003,-0.6752 -3.6451,-0.6752 z m 0.1749,2.3403 c 0.7101,0 1.2997,0.18 1.7748,0.5451 0.47,0.3648 0.8501,0.8348 1.135,1.4151 0.2905,0.5748 0.4901,1.2248 0.6103,1.9451 0.1148,0.72 0.1749,1.4301 0.1749,2.1299 0,0.8553 -0.07,1.6852 -0.2197,2.4903 -0.1454,0.805 -0.3753,1.5202 -0.6954,2.1501 -0.3146,0.6301 -0.7248,1.1301 -1.2197,1.51 -0.4952,0.375 -1.0902,0.5652 -1.7901,0.5652 -0.4753,0 -0.8954,-0.085 -1.2554,-0.2602 -0.3651,-0.1698 -0.6849,-0.4048 -0.955,-0.705 -0.275,-0.2951 -0.5049,-0.6401 -0.6948,-1.04 -0.1902,-0.4 -0.345,-0.8249 -0.4652,-1.2801 -0.1199,-0.4499 -0.1998,-0.91 -0.25,-1.3902 -0.0499,-0.4799 -0.0751,-0.9498 -0.0751,-1.415 0,-0.5151 0.0252,-1.04 0.0848,-1.5749 0.0603,-0.5301 0.1502,-1.0452 0.2752,-1.5353 0.1202,-0.4901 0.2849,-0.955 0.4901,-1.385 0.205,-0.4351 0.4499,-0.8101 0.745,-1.1251 0.2902,-0.32 0.6301,-0.5751 1.0153,-0.7599 0.3847,-0.1851 0.8249,-0.2801 1.315,-0.2801"
       style="fill:#ffffff;fill-opacity:1;fill-rule:nonzero;stroke:none"
       id="path4218"
       inkscape:connector-curvature="0" /><path
       d="m 118.3266,327.65411 3.2304,0.9953 c 0.165,0.0447 0.29,0.1148 0.3798,0.21 0.0902,0.0998 0.1401,0.2449 0.1401,0.4448 l 0,8.5657 0.2004,1.94 -0.2852,0 -3.9651,-0.4901 0,1.4301 5.7098,2.5353 3.0303,0 c -0.0196,-0.3101 -0.0346,-0.6452 -0.0496,-1.0001 -0.0154,-0.36 -0.0253,-0.7302 -0.0355,-1.1052 -0.005,-0.3798 -0.0144,-0.7549 -0.0195,-1.135 -0.005,-0.375 -0.005,-0.735 -0.005,-1.0701 l 0,-9.6706 c 0,-0.1999 0.0447,-0.345 0.1352,-0.4448 0.0895,-0.0952 0.2046,-0.1653 0.3396,-0.21 l 3.0954,-0.9953 0,-1.26 -11.901,0 0,1.26 z"
       style="fill:#ffffff;fill-opacity:1;fill-rule:nonzero;stroke:none"
       id="path4220"
       inkscape:connector-curvature="0" /><path
       d="m 133.1297,329.31921 c 1.5701,0.8702 2.9648,1.6452 4.1749,2.3201 1.2152,0.6702 2.2351,1.3252 3.0654,1.9554 0.8251,0.6349 1.455,1.2849 1.8799,1.9599 0.4303,0.6701 0.6401,1.4451 0.6401,2.3201 0,0.4802 -0.055,0.9201 -0.1701,1.3153 -0.1148,0.3949 -0.2846,0.7299 -0.5148,1.01 -0.235,0.2749 -0.5253,0.4901 -0.8753,0.64 -0.3498,0.15 -0.7597,0.2251 -1.2348,0.2251 -0.235,0 -0.5102,-0.0451 -0.8249,-0.1352 -0.3152,-0.0899 -0.6454,-0.2098 -1.0003,-0.3498 -0.3552,-0.1451 -0.7152,-0.3101 -1.0851,-0.4901 -0.3702,-0.18 -0.72,-0.36 -1.05,-0.5451 -0.3302,-0.1848 -0.6352,-0.3651 -0.915,-0.5349 -0.275,-0.1752 -0.5003,-0.32 -0.6752,-0.4351 l -0.915,0 0,3.7153 c 0.2851,0.1049 0.6352,0.2399 1.0502,0.4 0.4201,0.1599 0.9051,0.3098 1.455,0.455 0.5502,0.1451 1.1651,0.2701 1.84,0.375 0.6803,0.1049 1.4153,0.155 2.215,0.155 1.0752,0 2.0755,-0.1051 3.0104,-0.32 0.9303,-0.2151 1.7399,-0.5301 2.4253,-0.94 0.6851,-0.4152 1.2251,-0.9351 1.6149,-1.5502 0.3903,-0.62 0.5899,-1.3351 0.5899,-2.145 0,-0.6653 -0.0896,-1.2651 -0.2696,-1.8051 -0.1752,-0.5451 -0.4402,-1.0502 -0.79,-1.5253 -0.3501,-0.47 -0.7852,-0.9199 -1.3005,-1.3451 -0.5199,-0.4201 -1.1149,-0.845 -1.7949,-1.2651 -0.675,-0.4249 -1.4301,-0.86 -2.2652,-1.315 -0.83,-0.4501 -1.7348,-0.93 -2.7204,-1.4502 l 0,-0.2749 2.4004,0.3149 4.5955,0 c 0.1851,0 0.3246,0.0502 0.4249,0.1451 0.0998,0.095 0.1698,0.2251 0.2197,0.385 l 0.5703,1.9902 1.8153,0 0,-6.1804 -15.586,0 0,2.9251 z"
       style="fill:#ffffff;fill-opacity:1;fill-rule:nonzero;stroke:none"
       id="path4222"
       inkscape:connector-curvature="0" /><path
       d="m 71.2817,338.45211 c 1.9055,0 3.4501,-1.5446 3.4501,-3.45 0,-1.9055 -1.5446,-3.4503 -3.4501,-3.4503 -1.9057,0 -3.4503,1.5448 -3.4503,3.4503 0,1.9054 1.5446,3.45 3.4503,3.45"
       style="fill:#ffffff;fill-opacity:1;fill-rule:evenodd;stroke:none"
       id="path4224"
       inkscape:connector-curvature="0" /><path
       d="m 155.8114,338.45211 c 1.9052,0 3.4501,-1.5446 3.4501,-3.45 0,-1.9055 -1.5449,-3.4503 -3.4501,-3.4503 -1.9057,0 -3.4503,1.5448 -3.4503,3.4503 0,1.9054 1.5446,3.45 3.4503,3.45"
       style="fill:#ffffff;fill-opacity:1;fill-rule:evenodd;stroke:none"
       id="path4226"
       inkscape:connector-curvature="0" /><path
       d="m 10.2983,342.43281 2.7051,2.5331 c 0.1655,0.1547 0.2905,0.3274 0.3707,0.5079 0.0811,0.1803 0.0658,0.4159 -0.0453,0.7059 l -7.8993,20.6214 c -0.1029,0.2685 -0.2503,0.4366 -0.4496,0.5015 -0.1998,0.0649 -0.398,0.1052 -0.5754,0.1122 l -3.7049,0.0777 -0.6996,1.8272 14.8065,5.6713 c 2.1101,0.8084 3.9121,1.2906 5.4116,1.4579 1.4919,0.1638 2.7383,0.1009 3.7494,-0.1937 1.0003,-0.2902 1.7983,-0.7664 2.3871,-1.4139 0.5915,-0.6545 1.0366,-1.3821 1.3504,-2.2014 0.3475,-0.9065 0.5292,-1.7932 0.5323,-2.6484 -0.001,-0.8651 -0.1445,-1.6852 -0.447,-2.4576 -0.2999,-0.7801 -0.7421,-1.5148 -1.3379,-2.217 -0.5984,-0.6948 -1.3173,-1.3362 -2.1691,-1.912 l 0.0913,-0.2395 c 1.1854,0.3793 2.332,0.5774 3.4412,0.6115 1.1024,0.0314 2.1235,-0.1177 3.0549,-0.4428 0.9383,-0.3223 1.7612,-0.8221 2.4673,-1.4913 0.7121,-0.6667 1.2552,-1.4981 1.641,-2.5059 0.4195,-1.095 0.6395,-2.1248 0.6599,-3.09 0.0178,-0.9575 -0.1151,-1.8482 -0.4153,-2.6702 -0.3033,-0.8144 -0.7418,-1.5809 -1.3232,-2.2777 -0.5882,-0.6993 -1.2725,-1.3439 -2.0486,-1.9238 -0.7781,-0.5726 -1.6223,-1.1039 -2.5549,-1.5775 -0.9303,-0.4811 -1.8969,-0.9094 -2.8973,-1.2926 l -15.4015,-5.8995 -0.6998,1.8272 z m 7.0177,19.4508 c 1.0511,0.4028 1.9026,0.8286 2.5441,1.2821 0.6435,0.4462 1.1163,0.9267 1.421,1.4343 0.3042,0.5074 0.4581,1.0401 0.4601,1.5979 -0.004,0.5553 -0.1239,1.1498 -0.3603,1.766 -0.6276,1.6387 -1.4675,2.6807 -2.5268,3.1232 -1.0491,0.438 -2.4449,0.3271 -4.1851,-0.3393 l -2.6104,-1 3.2995,-8.614 1.9579,0.7498 z m 6.9367,-12.0101 c 1.7767,0.6803 2.963,1.5338 3.5492,2.5651 0.5859,1.0309 0.5806,2.3261 -0.0218,3.8996 -0.3501,0.9136 -0.7489,1.6503 -1.2005,2.2008 -0.4552,0.5576 -0.9929,0.9417 -1.6171,1.1599 -0.6166,0.2211 -1.3414,0.2679 -2.1592,0.1457 -0.828,-0.1176 -1.7895,-0.386 -2.8848,-0.8053 l -3.2771,-1.2555 3.6161,-9.4407 3.9952,1.5304 z m 17.9308,4.0328 3.0101,2.1617 c 0.1684,0.1284 0.3073,0.2815 0.4181,0.4522 0.1106,0.1703 0.1333,0.4073 0.0607,0.7092 l -5.1653,21.4702 c -0.0672,0.2795 -0.1919,0.4648 -0.3662,0.5587 -0.1741,0.0938 -0.3657,0.1596 -0.5709,0.1822 l -3.6638,0.5559 -0.4578,1.9026 15.567,3.7452 c 1.5174,0.3651 2.8789,0.5808 4.0754,0.6531 1.1965,0.0722 2.2473,0.0215 3.1493,-0.1449 0.9028,-0.1661 1.6781,-0.4348 2.3227,-0.7906 0.6466,-0.3637 1.1965,-0.7906 1.6404,-1.2747 0.4456,-0.4915 0.7988,-1.0296 1.0743,-1.6104 0.2679,-0.5822 0.4737,-1.1718 0.6191,-1.7756 0.2741,-1.1398 0.3419,-2.1858 0.2112,-3.1357 -0.1403,-0.9442 -0.4042,-1.8062 -0.7934,-2.5787 -0.3983,-0.7667 -0.8884,-1.4519 -1.4777,-2.0568 -0.5908,-0.5972 -1.2022,-1.1114 -1.8426,-1.5372 l 9.3717,-8.4467 c 0.1142,-0.1085 0.2358,-0.2151 0.3722,-0.318 0.1366,-0.1029 0.2789,-0.1965 0.4362,-0.2863 0.1633,-0.0805 0.3172,-0.1554 0.4765,-0.2208 0.167,-0.0635 0.3266,-0.0973 0.487,-0.0984 l 3.5493,-0.2804 0.4612,-1.9173 -7.8435,-1.887 c -0.7248,-0.1746 -1.313,-0.252 -1.7481,-0.237 -0.4442,0.021 -0.8334,0.1111 -1.169,0.2778 -0.3354,0.1669 -0.6645,0.407 -0.9709,0.7169 -0.3061,0.3095 -0.6817,0.6743 -1.1333,1.0927 l -8.6797,8.1264 -2.9922,0.0227 2.1631,-8.9912 c 0.0726,-0.3019 0.1933,-0.5046 0.3753,-0.5967 0.1743,-0.0936 0.3844,-0.171 0.6253,-0.2087 l 3.6428,-0.5692 0.4578,-1.9023 -15.2345,-3.6655 -0.4578,1.9026 z m 10.8068,17.4544 c 0.8527,0.2052 1.5489,0.5323 2.0971,0.9757 0.5408,0.4416 0.9615,0.9501 1.2376,1.5275 0.286,0.5721 0.4476,1.194 0.4935,1.8678 0.0377,0.6721 -0.017,1.3297 -0.1712,1.9715 -0.4161,1.7288 -1.1721,2.8806 -2.2703,3.4628 -1.0967,0.5749 -2.5217,0.6551 -4.2579,0.2375 l -2.5971,-0.6247 2.3811,-9.8972 c 0.1131,-0.005 0.3087,0.0102 0.5862,0.053 0.2713,0.0335 0.5712,0.0817 0.8807,0.1242 0.3164,0.0442 0.6222,0.1017 0.9201,0.1576 0.3059,0.0575 0.5341,0.1043 0.7002,0.1443 z m 39.1711,-11.0739 c -2.5401,-0.2732 -4.8254,-0.1525 -6.8652,0.37 -2.0392,0.5144 -3.7973,1.3952 -5.2892,2.6325 -1.4924,1.2373 -2.6849,2.8111 -3.5849,4.7137 -0.9006,1.91 -1.4888,4.1114 -1.7575,6.605 -0.2523,2.3468 -0.1205,4.5321 0.379,6.562 0.5082,2.0304 1.3697,3.8177 2.5764,5.3767 1.2067,1.5591 2.7487,2.8341 4.6253,3.8248 1.8768,0.991 4.0436,1.6146 6.514,1.8805 2.7017,0.2908 5.0763,0.1406 7.1311,-0.4425 2.0625,-0.5902 3.8191,-1.5259 5.2679,-2.7989 1.4499,-1.281 2.596,-2.8602 3.4393,-4.7449 0.8433,-1.8851 1.3799,-3.9671 1.6268,-6.2601 0.1463,-1.3586 0.1596,-2.7161 0.04,-4.0722 -0.1273,-1.357 -0.4017,-2.6518 -0.8218,-3.8996 -0.4122,-1.247 -0.9978,-2.4112 -1.7467,-3.5071 -0.7489,-1.0958 -1.6662,-2.0769 -2.7536,-2.9281 -1.0868,-0.8589 -2.361,-1.5741 -3.814,-2.1521 -1.461,-0.5712 -3.1142,-0.9601 -4.9669,-1.1597 z m -0.0822,3.7398 c 1.2739,0.1372 2.363,0.5355 3.2607,1.1945 0.8895,0.6582 1.601,1.5233 2.1249,2.6028 0.5241,1.0794 0.8637,2.3502 1.0267,3.8123 0.1638,1.4545 0.1471,3.0617 -0.0428,4.8217 -0.2177,2.0225 -0.5743,3.8118 -1.0786,5.3739 -0.5029,1.5546 -1.1503,2.8517 -1.9485,3.8824 -0.7974,1.0233 -1.7533,1.7796 -2.8511,2.2547 -1.1061,0.4821 -2.365,0.6434 -3.7857,0.4906 -1.3589,-0.1462 -2.4843,-0.572 -3.3775,-1.2696 -0.8858,-0.6968 -1.5851,-1.5999 -2.0837,-2.7 -0.4992,-1.0922 -0.8153,-2.3604 -0.9434,-3.7877 -0.127,-1.4272 -0.1049,-2.9398 0.0669,-4.5379 0.2174,-2.0149 0.5655,-3.7971 1.0624,-5.368 0.4961,-1.563 1.1452,-2.8755 1.9392,-3.9382 0.7926,-1.0545 1.7425,-1.8272 2.8352,-2.3264 1.0993,-0.4909 2.3593,-0.6596 3.7953,-0.5051 z m 23.0049,25.3857 c -0.0882,0.2001 -0.1914,0.409 -0.3107,0.6111 -0.1193,0.2024 -0.2951,0.3691 -0.5281,0.5009 l -2.1506,1.1579 0.1258,1.9528 13.8393,-0.8918 -0.1261,-1.9525 -3.6995,-1.1389 3.7942,-16.1096 0.3605,-2.9798 0.4879,-0.0314 6.1727,15.4907 2.6229,5.4485 5.2455,-0.3382 4.7781,-18.9504 0.4493,-2.931 0.4493,-0.029 7.0509,18.2583 -3.5983,1.7569 0.1261,1.9528 11.0265,-0.7104 -0.1259,-1.9528 -2.2484,-0.9598 c -0.2004,-0.0884 -0.4034,-0.2231 -0.6174,-0.4039 -0.2069,-0.1888 -0.3591,-0.3816 -0.4422,-0.5862 l -8.4342,-20.8848 -2.5325,-5.3768 -5.3855,0.347 -4.7242,18.9394 -0.5134,2.8964 -0.4187,0.0269 -6.2234,-15.5574 -2.5946,-5.3727 -5.3232,0.343 -6.5321,27.4748 z m 42.8207,-27.7385 2.4622,0.5417 c 0.5207,0.1063 0.9422,0.3963 1.2787,0.8663 l 13.5584,19.2433 3.6921,4.3906 5.5335,-1.3312 3.7508,-28.7904 c 0.0343,-0.2559 0.11,-0.5057 0.2098,-0.7534 0.1023,-0.2401 0.2415,-0.4252 0.4328,-0.5593 l 2.0645,-1.5429 -0.4575,-1.9023 -13.6868,3.2927 0.4575,1.9026 3.7636,0.54 -1.0058,6.607 -10.7427,2.5847 -3.6831,-5.351 3.1374,-2.3284 -0.4578,-1.9023 -10.7651,2.59 0.4575,1.9023 z m 21.5062,6.4698 -1.0732,8.0209 -0.0695,2.9637 -0.4527,0.1088 -6.2708,-9.2007 7.8662,-1.8927 z m 14.0326,-14.7438 3.7049,0.0777 c 0.212,0.0102 0.413,0.0578 0.6012,0.1357 0.1871,0.0777 0.3407,0.2603 0.4516,0.5502 l 7.899,20.6218 c 0.1029,0.2682 0.1052,0.4918 0.0147,0.6678 -0.0904,0.1761 -0.2114,0.3388 -0.3676,0.4731 l -2.7051,2.5331 0.7001,1.8272 14.9514,-5.7271 c 1.4578,-0.5582 2.702,-1.1515 3.7295,-1.7691 1.027,-0.618 1.8638,-1.2546 2.5138,-1.9029 0.6497,-0.6477 1.1367,-1.3085 1.4669,-1.9667 0.3266,-0.6659 0.5386,-1.3289 0.6299,-1.9794 0.089,-0.6577 0.0754,-1.3011 -0.0261,-1.9355 -0.1091,-0.6319 -0.273,-1.2342 -0.4955,-1.8142 -0.419,-1.095 -0.9553,-1.9953 -1.601,-2.7043 -0.6503,-0.699 -1.3558,-1.26 -2.1138,-1.6764 -0.7628,-0.4064 -1.5548,-0.6936 -2.3828,-0.8586 -0.8252,-0.1576 -1.62,-0.2355 -2.3888,-0.2239 l 2.9418,-12.2686 c 0.0326,-0.154 0.0723,-0.3104 0.1264,-0.4726 0.0542,-0.1621 0.1188,-0.32 0.1976,-0.483 0.089,-0.1587 0.1732,-0.3076 0.2679,-0.4518 0.1015,-0.1472 0.2143,-0.2651 0.3453,-0.3569 l 2.7669,-2.2405 -0.7053,-1.842 -7.5339,2.886 c -0.6962,0.2664 -1.2246,0.5357 -1.5744,0.7942 -0.3546,0.269 -0.6242,0.5633 -0.8067,0.891 -0.182,0.3277 -0.3175,0.712 -0.3946,1.1406 -0.0768,0.4286 -0.1797,0.9417 -0.3155,1.5426 l -2.5526,11.6125 -2.4534,1.7132 -3.3083,-8.636 c -0.1111,-0.29 -0.1264,-0.5253 -0.0286,-0.7041 0.0907,-0.1758 0.2205,-0.3586 0.3971,-0.5262 l 2.6807,-2.5319 -0.7001,-1.8272 -14.6322,5.605 0.6996,1.8272 z m 18.7906,8.2681 c 0.8192,-0.3138 1.5786,-0.4383 2.2813,-0.3833 0.6956,0.0579 1.3303,0.2387 1.8853,0.5582 0.5593,0.3098 1.0446,0.7307 1.4636,1.2603 0.4121,0.5323 0.7395,1.1055 0.9754,1.722 0.636,1.6603 0.6647,3.0379 0.0895,4.1397 -0.5788,1.0948 -1.7078,1.9678 -3.3752,2.6068 l -2.4945,0.9552 -3.6411,-9.5059 c 0.0902,-0.0681 0.2605,-0.1664 0.5131,-0.288 0.2429,-0.1262 0.5173,-0.2563 0.796,-0.3966 0.286,-0.1426 0.5706,-0.2685 0.8481,-0.3912 0.2846,-0.1256 0.4989,-0.216 0.6585,-0.2772"
       style="fill:#ffffff;fill-opacity:1;fill-rule:nonzero;stroke:none"
       id="path4228"
       inkscape:connector-curvature="0" /><path
       d="m 15.5186,17.748014 c -2.0812,0.7971 -3.924,1.8689 -5.5285,3.215 -1.597,1.3437 -2.8502,2.9126 -3.7476,4.6951 -0.9,1.7747 -1.3904,3.7502 -1.4769,5.9122 -0.0867,2.1617 0.3396,4.4679 1.2725,6.9043 0.8889,2.3202 2.0806,4.2585 3.5702,5.8249 1.4868,1.5588 3.1799,2.7233 5.0576,3.5005 1.8845,0.7747 3.9212,1.1421 6.1095,1.1021 2.1833,-0.0297 4.4198,-0.4872 6.6963,-1.3594 1.4502,-0.5554 2.7218,-1.1005 3.8239,-1.6311 1.0922,-0.5343 2.06,-1.0466 2.901,-1.5435 0.8334,-0.4938 1.5843,-0.9643 2.2385,-1.406 0.6537,-0.4419 1.2654,-0.8424 1.8389,-1.2118 l -3.1465,-8.2153 -3.0095,1.1525 0.5028,4.2645 c 0.0241,0.2151 -0.0354,0.4291 -0.1811,0.6347 -0.1355,0.21 -0.2812,0.3736 -0.43,0.5057 -0.379,0.3778 -0.8246,0.7562 -1.3187,1.1369 -0.4972,0.3734 -1.0148,0.7379 -1.5446,1.0905 -0.5329,0.3456 -1.0695,0.6591 -1.6101,0.9411 -0.5408,0.2818 -1.0488,0.5182 -1.5273,0.7016 -1.1823,0.4527 -2.3749,0.6599 -3.5566,0.6137 -1.1891,-0.0434 -2.3236,-0.3572 -3.3993,-0.9513 -1.0681,-0.5967 -2.0733,-1.484 -3.0121,-2.6544 -0.9343,-1.18 -1.7447,-2.666 -2.431,-4.4569 -0.6857,-1.7909 -1.1248,-3.5016 -1.3144,-5.1256 -0.1925,-1.6308 -0.1301,-3.1178 0.1939,-4.4643 0.324,-1.3464 0.9039,-2.5248 1.7594,-3.526 0.8453,-1.0054 1.9639,-1.775 3.3636,-2.3111 0.5508,-0.2112 1.0797,-0.3719 1.5888,-0.4754 0.5018,-0.1009 0.9686,-0.1632 1.3972,-0.1944 0.4315,-0.0238 0.8096,-0.0357 1.1441,-0.0306 0.3373,0.0119 0.6123,0.0147 0.8246,0.0249 l 2.2439,5.8587 c 0.1001,0.261 0.1069,0.4745 0.0162,0.6508 -0.0933,0.1687 -0.2237,0.3268 -0.3799,0.4615 l -3.7488,2.999 0.6834,1.7839 14.9511,-5.7271 -0.6829,-1.7836 -3.0384,-0.3997 c -0.203,-0.0303 -0.4085,-0.068 -0.5996,-0.1111 -0.1941,-0.0505 -0.3359,-0.2038 -0.4385,-0.4723 l -1.1891,-3.1033 c -0.4998,-1.3051 -0.9122,-2.4027 -1.2362,-3.293 -0.3243,-0.8904 -0.5573,-1.6073 -0.6894,-2.1473 -0.9051,0.0474 -1.8794,0.1296 -2.931,0.2498 -1.0514,0.1201 -2.1359,0.2857 -3.259,0.5 -1.1163,0.2115 -2.2479,0.4703 -3.3945,0.7764 -1.1438,0.3132 -2.2612,0.6746 -3.3559,1.0942 z m 26.2153,-6.2328 3.6638,0.5561 c 0.2089,0.0377 0.4017,0.1108 0.578,0.2123 0.1763,0.1015 0.3047,0.3022 0.3773,0.6041 l 5.165,21.4702 c 0.0675,0.2792 0.0411,0.5014 -0.0717,0.6641 -0.1123,0.1627 -0.2529,0.3084 -0.4255,0.4218 l -3.0098,2.1617 0.4575,1.9026 15.5667,-3.7454 c 1.5177,-0.3651 2.8284,-0.7923 3.9266,-1.2722 1.0984,-0.4799 2.0109,-1.0029 2.7391,-1.5613 0.7282,-0.5584 1.2963,-1.1506 1.709,-1.7609 0.4099,-0.6176 0.7058,-1.2481 0.881,-1.8811 0.1732,-0.6406 0.2427,-1.2804 0.2242,-1.9227 -0.0266,-0.6406 -0.1111,-1.2589 -0.2565,-1.8629 -0.2744,-1.1398 -0.6894,-2.1022 -1.2382,-2.8885 -0.5544,-0.7773 -1.1812,-1.425 -1.8791,-1.9358 -0.7038,-0.5017 -1.4519,-0.8887 -2.2518,-1.1594 -0.7982,-0.2633 -1.5761,-0.4433 -2.34,-0.5312 l 4.504,-11.7849999 c 0.0524,-0.1486 0.1119,-0.2988 0.1865,-0.4524 0.0751,-0.1537 0.1593,-0.3019 0.2585,-0.4536 0.1086,-0.1457 0.2112,-0.2823 0.324,-0.4133 0.1199,-0.1326 0.2469,-0.2352 0.3889,-0.3092 l 3.0331,-1.8638 -0.4612,-1.9174 -7.8435,1.8871 c -0.7245,0.1743 -1.2838,0.3727 -1.6642,0.5839 -0.3866,0.2208 -0.6922,0.4779 -0.915,0.7792 -0.2231,0.3014 -0.4068,0.665 -0.5386,1.08 -0.1318,0.415 -0.2999,0.9108 -0.5125,1.4888 l -4.0334,11.1848999 -2.6544,1.3814 -2.1631,-8.991 c -0.0726,-0.3021 -0.0573,-0.5374 0.0624,-0.7021 0.1125,-0.1627 0.265,-0.3271 0.462,-0.4706 l 2.9852,-2.1635999 -0.4578,-1.9024 -15.234,3.6652 0.4575,1.9023999 z m 17.5635,10.629 c 0.8527,-0.2052 1.6217,-0.2307 2.3114,-0.085 0.6823,0.1471 1.2886,0.4087 1.7974,0.7974 0.5145,0.3795 0.9414,0.8597 1.2881,1.4388 0.3396,0.5814 0.5904,1.192 0.7449,1.8338 0.4156,1.7285 0.2662,3.0982 -0.447,4.1164 -0.7152,1.0109 -1.9477,1.7306 -3.6839,2.1484 l -2.5971,0.6248 -2.3811,-9.8972 c 0.0981,-0.0555 0.2795,-0.1312 0.5462,-0.2194 0.2566,-0.0935 0.5457,-0.1871 0.8405,-0.29 0.3022,-0.1046 0.6004,-0.1924 0.8915,-0.2783 0.2982,-0.0879 0.523,-0.15 0.6891,-0.1897 z m 27.938,-19.0342999 3.6618,1.1644 c 0.246,0.0698 0.447,0.1735 0.5958,0.3042 0.148,0.1304 0.2325,0.3506 0.2523,0.6605 l 0.4436,6.8807999 -7.7785,15.9772 c -0.0953,0.2083 -0.2143,0.4184 -0.3563,0.6298 -0.1412,0.2192 -0.3331,0.3793 -0.567,0.4955 l -2.3833,1.173 0.1261,1.9528 14.0947,-0.9082 -0.1261,-1.9528 -3.5136,-1.1585 4.902,-9.5361 0.8705,-2.6705 0.4419,-0.0283 7.3066,11.2391 -3.3514,1.7257 0.1259,1.9525 11.0497,-0.7121 -0.1259,-1.9525 -2.4576,-0.9465 c -0.2157,-0.0875 -0.4187,-0.2219 -0.6103,-0.4198 -0.1916,-0.1899 -0.3441,-0.3824 -0.4731,-0.5765 l -9.8524,-14.6467 -0.4504,-6.9892999 c -0.0204,-0.3099 0.0272,-0.5383 0.1576,-0.6869 0.123,-0.1479 0.286,-0.2752 0.4972,-0.3744 l 3.5212,-1.6274 -0.1256,-1.95280004 -16.001,1.03100004 0.1256,1.9528 z m 33.552,-1.1574 3.3352,1.6154 c 0.218,0.1151 0.3887,0.243 0.512,0.383 0.1227,0.148 0.1783,0.3696 0.1587,0.6795 l -1.4199,22.0370999 c -0.0184,0.2868 -0.1091,0.483 -0.265,0.6054 -0.1548,0.1143 -0.3328,0.2118 -0.5315,0.2846 l -3.515,1.1742 -0.1258,1.9527 26.9654,1.7374 0.5692,-8.8333 -3.2159,-0.2072 -1.3167,4.0076 c -0.087,0.2667 -0.216,0.4609 -0.3796,0.5825 -0.1635,0.1216 -0.354,0.1797 -0.5788,0.165 l -10.3365,-0.6659 0.5992,-9.2985 5.7648,0.3714 c 0.3022,0.0195 0.4989,0.1102 0.6132,0.2653 0.1068,0.1548 0.1958,0.347 0.2511,0.5763 l 0.8402,3.3766 2.6192,0.169 0.7668,-11.9022 -2.6192,-0.1686 -1.2654,3.2176 c -0.1035,0.2812 -0.2174,0.4759 -0.3339,0.5933 -0.1245,0.1239 -0.33,0.1729 -0.6322,0.1536 l -5.7648,-0.3716 0.6021,-9.3446999 c 0.0195,-0.3101 0.104,-0.5304 0.2676,-0.6596 0.1573,-0.1378 0.3498,-0.2344 0.5799,-0.3053 l 3.6627,-1.1721 0.1259,-1.9528 L 120.913,1.40625e-5 120.7874,1.9525141 Z m 54.0771,4.5252 c -2.0835,-0.5012 -3.9705,-0.6916 -5.6472,-0.5598 -1.675,0.1241 -3.1462,0.4969 -4.4062,1.1202 -1.2583,0.6154 -2.2904,1.4533 -3.0914,2.4905 -0.8096,1.0431999 -1.3697,2.2419999 -1.6929,3.5858999 l -4.0433,16.8046 c -0.0655,0.2718 -0.1956,0.4481 -0.3773,0.54 -0.1874,0.0828 -0.3943,0.1448 -0.6259,0.1769 l -3.5955,0.5726 -0.4575,1.9023 15.2113,3.6598 0.4578,-1.9023 -2.9869,-2.1563 c -0.1499,-0.108 -0.2829,-0.2517 -0.4107,-0.4181 -0.1276,-0.1664 -0.1542,-0.3887 -0.0887,-0.6605 l 3.5671,-14.8266 c 0.1329,-0.5511 0.299,-1.1101 0.5051,-1.6677 0.2078,-0.5649 0.4703,-1.0924 0.775,-1.5942 0.3121,-0.5 0.6755,-0.9476 1.099,-1.3487 0.4241,-0.4014 0.9241,-0.7203 1.5114,-0.9703 0.578,-0.2443 1.2433,-0.3878 1.9868,-0.4243 0.7362,-0.0386 1.5843,0.0535 2.5277,0.2806 0.9363,0.2254 1.7336,0.5289 2.4018,0.9054 0.661,0.3744 1.2183,0.8121 1.6597,1.3017 0.4393,0.4972 0.7755,1.0253 1.0122,1.6013 0.2461,0.5703 0.4,1.1585 0.4867,1.762 0.0788,0.602 0.0933,1.2044 0.0403,1.8226 -0.0587,0.6089 -0.1528,1.2011 -0.2931,1.7825 l -3.5014,14.555 c -0.0674,0.2792 -0.1808,0.4519 -0.3512,0.5304 -0.1692,0.0711 -0.3682,0.1352 -0.5805,0.1876 l -3.653,0.7107 -0.4578,1.9023 12.2451,2.9461 0.4578,-1.9024 -2.9526,-2.2997 c -0.165,-0.1437 -0.3135,-0.2911 -0.4317,-0.4312 -0.1162,-0.1477 -0.1386,-0.3529 -0.0712,-0.6321 l 3.7942,-15.7705 c 0.3033,-1.2609 0.3813,-2.448 0.2336,-3.5615 -0.1474,-1.1137 -0.4521,-2.1373 -0.9275,-3.0821 -0.468,-0.9434 -1.063,-1.7892 -1.7813,-2.5532 -0.7115,-0.7619 -1.5007,-1.4308999 -2.342,-2.0167999 -0.8507,-0.58 -1.7232,-1.0695 -2.6175,-1.4684 -0.902,-0.4008 -1.7654,-0.6962 -2.5883,-0.8943 z m 38.0579,12.1960999 c -0.6984,-0.3031 -1.5134,-0.5891 -2.4358,-0.8626 -0.9331,-0.269 -1.8961,-0.5264 -2.9035,-0.7605 -1.0074,-0.2339 -2.0137,-0.4505 -3.0254,-0.6356 -1.0114,-0.1851 -1.9593,-0.3421 -2.8392,-0.4787 l -3.638,8.3837 2.9702,1.2889 2.5605,-3.2479 c 0.089,-0.0885 0.1823,-0.1664 0.2832,-0.224 0.1046,-0.0649 0.2202,-0.1162 0.3424,-0.1647 0.1154,-0.0513 0.235,-0.0926 0.3515,-0.1267 0.1165,-0.0343 0.2225,-0.0643 0.3223,-0.0802 0.3767,-0.0485 0.8507,-0.0881 1.4159,-0.1222 0.5652,-0.034 1.1565,-0.0314 1.7702,-0.002 0.6092,0.019 1.2218,0.0898 1.8292,0.1927 0.6072,0.1023 1.1509,0.254 1.6138,0.4547 0.8549,0.371 1.6081,0.7996 2.2433,1.2866 0.6452,0.4833 1.1608,1.0117 1.5356,1.5721 0.3818,0.5636 0.6114,1.1458 0.6998,1.7425 0.0879,0.597 -0.005,1.2002 -0.2673,1.8057 -0.2412,0.5555 -0.5306,0.9884 -0.8827,1.2926 -0.3452,0.3075 -0.7435,0.5238 -1.1917,0.6596 -0.4552,0.1324 -0.9626,0.2086 -1.5324,0.2151 -0.5629,0.01 -1.1857,0.002 -1.8717,-0.0164 -0.6661,-0.0267 -1.315,-0.0714 -1.9553,-0.1375 -0.65,-0.0621 -1.2796,-0.1321 -1.8995,-0.2064 -0.6163,-0.0813 -1.2388,-0.1482 -1.8516,-0.2194 -0.6225,-0.0671 -1.2266,-0.1176 -1.8332,-0.144 -0.9377,-0.0428 -1.8357,0.0162 -2.6997,0.1744 -0.8572,0.1613 -1.6628,0.4382 -2.41,0.8334 -0.7574,0.3991 -1.4304,0.9368 -2.0412,1.6027 -0.6038,0.6692 -1.1118,1.4896 -1.5322,2.4582 -0.3897,0.8977 -0.6086,1.7929 -0.661,2.6929 -0.0516,0.9 0.0309,1.7824 0.2625,2.6529 0.2313,0.8708 0.5865,1.7107 1.065,2.5192 0.479,0.8087 1.0627,1.5698 1.7444,2.2807 0.6891,0.7135 1.4584,1.3604 2.3108,1.9503 0.8558,0.5831 1.7629,1.0868 2.7391,1.5103 0.8263,0.3586 1.696,0.6939 2.6209,1.002 0.9244,0.3079 1.8366,0.5851 2.7471,0.828 0.9068,0.2498 1.7776,0.4669 2.6121,0.6511 0.834,0.1843 1.5837,0.3487 2.2547,0.4791 l 3.5396,-8.1558 -2.9565,-1.2827 -2.4798,3.0628 c -0.1479,0.1644 -0.356,0.294 -0.6261,0.3886 -0.2594,0.0907 -0.4921,0.1591 -0.6917,0.1905 -0.197,0.0247 -0.4918,0.0408 -0.8946,0.0522 -0.4099,0.008 -0.8697,-0.005 -1.3791,-0.04 -0.517,-0.038 -1.0428,-0.1137 -1.5834,-0.2129 -0.5383,-0.1065 -1.0474,-0.2599 -1.5103,-0.4606 -0.8263,-0.3586 -1.5092,-0.7736 -2.0455,-1.2348 -0.5434,-0.4643 -0.9453,-0.9433 -1.2291,-1.4391 -0.2806,-0.4856 -0.4292,-0.9817 -0.4697,-1.4735 -0.0303,-0.4955 0.0431,-0.9377 0.2194,-1.3436 0.1885,-0.4345 0.4286,-0.8127 0.7175,-1.1276 0.2891,-0.3147 0.665,-0.5576 1.1177,-0.7421 0.4566,-0.1744 1.0068,-0.2911 1.6441,-0.3362 0.6446,-0.042 1.4142,-0.0213 2.319,0.0584 0.612,0.0538 1.2061,0.1083 1.7838,0.1814 0.5806,0.066 1.1716,0.1276 1.7669,0.1996 0.6052,0.068 1.2237,0.125 1.8527,0.1777 0.629,0.0527 1.309,0.0856 2.0194,0.106 0.8847,0.0286 1.7484,-0.0116 2.5943,-0.127 0.8498,-0.1051 1.6514,-0.3331 2.408,-0.6732 0.7574,-0.3402 1.4468,-0.8365 2.0795,-1.476 0.633,-0.6395 1.1724,-1.472 1.6174,-2.4979 0.544,-1.2535 0.8068,-2.5614 0.7779,-3.9198 -0.0281,-1.358 -0.379,-2.6951 -1.052,-4.0115 -0.6732,-1.3162 -1.7013,-2.575 -3.0773,-3.7732 -1.3691,-1.1948 -3.1342,-2.257 -5.2852,-3.1904"
       style="fill:#ffffff;fill-opacity:1;fill-rule:nonzero;stroke:none"
       id="path4230"
       inkscape:connector-curvature="0" /><path
       d="m 190.491,231.18971 c 5.1548,-2.8933 5.8788,0.3368 9.9031,-0.2392 0.5077,-2.5356 0.1117,-4.0833 0.3167,-6.5844 0.1131,-1.3804 0.9581,-3.6326 2.2949,-3.9118 3.78,-0.79 2.9761,6.5452 3.1521,9.7331 1.9075,0.8583 9.7481,-2.7471 10.1089,1.8102 0.0735,0.9261 -0.8376,2.4588 -0.7398,3.0098 0.2305,0.106 0.4518,0.2288 0.6627,0.3657 0.029,0.0178 0.0582,0.0368 0.0868,0.0572 1.3918,0.9443 2.3063,2.539 2.3063,4.3475 0,2.7349 -2.0914,4.9811 -4.7623,5.2271 -0.2154,3.638 -3.2334,6.522 -6.9253,6.522 -2.1078,0 -3.996,-0.9406 -5.2684,-2.4242 -0.7949,2.4409 -3.0887,4.2052 -5.7949,4.2052 -2.5299,0 -4.6999,-1.5418 -5.6214,-3.7372 l -0.1706,-0.1097 c -0.9511,0.9572 -2.268,1.5497 -3.7239,1.5497 -2.842,0 -5.1565,-2.2589 -5.2467,-5.0791 -0.2128,-0.9255 -0.5278,-1.2252 -1.294,-1.8156 -2.3791,-1.1002 -4.0303,-3.5073 -4.0303,-6.3006 0,-3.4481 2.5163,-6.3088 5.8125,-6.8468 2.0228,-0.5031 4.1981,-0.2778 5.7512,0.5363 1.7722,0.9292 1.5332,0.6103 3.1824,-0.3152"
       style="fill:#ffffff;fill-opacity:1;fill-rule:evenodd;stroke:none"
       id="path4232"
       inkscape:connector-curvature="0" /></g></svg>